<svg width="183" height="34" viewBox="0 0 183 34" fill="none" xmlns="http://www.w3.org/2000/svg">
<path d="M13.248 27.54C9.624 27.54 6.648 26.292 4.32 23.796C2.016 21.276 0.864 18.084 0.864 14.22C0.864 10.332 1.992 7.116 4.248 4.572C6.504 2.028 9.492 0.755999 13.212 0.755999C16.284 0.755999 18.744 1.572 20.592 3.204C22.464 4.812 23.544 6.888 23.832 9.432H18.648C18.408 8.112 17.808 7.068 16.848 6.3C15.912 5.532 14.7 5.148 13.212 5.148C10.932 5.148 9.192 5.988 7.992 7.668C6.792 9.348 6.192 11.532 6.192 14.22C6.192 16.884 6.828 19.056 8.1 20.736C9.396 22.416 11.112 23.256 13.248 23.256C14.76 23.256 16.02 22.848 17.028 22.032C18.036 21.192 18.624 20.088 18.792 18.72H23.904C23.76 21.144 22.812 23.172 21.06 24.804C19.116 26.628 16.512 27.54 13.248 27.54ZM42.0652 24.768C40.2652 26.616 37.9492 27.54 35.1172 27.54C32.2852 27.54 29.9692 26.616 28.1692 24.768C26.3692 22.896 25.4692 20.568 25.4692 17.784C25.4692 15 26.3692 12.684 28.1692 10.836C29.9692 8.964 32.2852 8.028 35.1172 8.028C37.9492 8.028 40.2652 8.964 42.0652 10.836C43.8652 12.684 44.7652 15 44.7652 17.784C44.7652 20.568 43.8652 22.896 42.0652 24.768ZM35.1172 23.796C36.5812 23.796 37.7212 23.256 38.5372 22.176C39.3772 21.072 39.7972 19.608 39.7972 17.784C39.7972 15.96 39.3772 14.496 38.5372 13.392C37.7212 12.288 36.5812 11.736 35.1172 11.736C33.6292 11.736 32.4772 12.288 31.6612 13.392C30.8452 14.472 30.4372 15.936 30.4372 17.784C30.4372 19.608 30.8452 21.072 31.6612 22.176C32.4772 23.256 33.6292 23.796 35.1172 23.796ZM51.829 8.532V11.052H51.937C53.209 9.036 55.033 8.028 57.409 8.028C59.305 8.028 60.841 8.676 62.017 9.972C63.193 11.244 63.781 12.9 63.781 14.94V27H58.885V15.66C58.885 14.652 58.597 13.836 58.021 13.212C57.469 12.588 56.689 12.276 55.681 12.276C54.601 12.276 53.701 12.672 52.981 13.464C52.285 14.256 51.937 15.276 51.937 16.524V27H47.041V8.532H51.829ZM75.3668 27.54C72.5108 27.54 70.2188 26.616 68.4908 24.768C66.7628 22.92 65.8988 20.592 65.8988 17.784C65.8988 14.976 66.7388 12.648 68.4188 10.8C70.1228 8.952 72.3548 8.028 75.1148 8.028C77.4428 8.028 79.3388 8.64 80.8028 9.864C82.2668 11.088 83.1668 12.732 83.5028 14.796H78.7148C78.5468 13.956 78.1628 13.272 77.5628 12.744C76.9628 12.216 76.2188 11.952 75.3308 11.952C73.8908 11.952 72.7868 12.468 72.0188 13.5C71.2508 14.532 70.8668 15.96 70.8668 17.784C70.8668 19.584 71.2388 21.012 71.9828 22.068C72.7268 23.1 73.8188 23.616 75.2588 23.616C77.3948 23.616 78.6308 22.572 78.9668 20.484H83.6828C83.5148 22.524 82.6868 24.216 81.1988 25.56C79.7108 26.88 77.7668 27.54 75.3668 27.54ZM94.4944 27.54C91.5184 27.54 89.1784 26.628 87.4744 24.804C85.7704 22.956 84.9184 20.604 84.9184 17.748C84.9184 14.988 85.7704 12.684 87.4744 10.836C89.1784 8.964 91.3624 8.028 94.0264 8.028C96.9304 8.028 99.1744 9.036 100.758 11.052C102.342 13.068 103.134 15.768 103.134 19.152H89.7424C89.9344 20.616 90.4264 21.756 91.2184 22.572C92.0104 23.364 93.0904 23.76 94.4584 23.76C96.2584 23.76 97.4464 23.004 98.0224 21.492H102.846C102.486 23.22 101.574 24.66 100.11 25.812C98.6464 26.964 96.7744 27.54 94.4944 27.54ZM94.0984 11.808C91.7224 11.808 90.2944 13.128 89.8144 15.768H98.0224C97.9504 14.592 97.5544 13.644 96.8344 12.924C96.1144 12.18 95.2024 11.808 94.0984 11.808ZM105.4 33.048V8.532H110.116V10.836H110.224C111.592 8.964 113.404 8.028 115.66 8.028C118.084 8.028 120.028 8.928 121.492 10.728C122.956 12.528 123.688 14.88 123.688 17.784C123.688 20.76 122.956 23.136 121.492 24.912C120.028 26.664 118.096 27.54 115.696 27.54C113.296 27.54 111.52 26.664 110.368 24.912H110.296V33.048H105.4ZM114.652 23.472C115.9 23.472 116.884 22.98 117.604 21.996C118.348 21.012 118.72 19.656 118.72 17.928C118.72 16.08 118.372 14.628 117.676 13.572C116.98 12.516 115.912 11.988 114.472 11.988C113.008 11.988 111.928 12.54 111.232 13.644C110.536 14.724 110.188 16.152 110.188 17.928C110.188 19.632 110.572 20.988 111.34 21.996C112.108 22.98 113.212 23.472 114.652 23.472ZM124.359 11.772V8.532H126.915V2.772H131.703V8.532H134.871V11.772H131.703V21.564C131.703 22.788 132.315 23.4 133.539 23.4L134.979 23.364V26.964C134.235 27.012 133.215 27.036 131.919 27.036C130.503 27.036 129.315 26.7 128.355 26.028C127.395 25.332 126.915 24.192 126.915 22.608V11.772H124.359ZM137.393 27V8.532H142.289V27H137.393ZM137.393 5.652V1.26H142.289V5.652H137.393ZM161.139 24.768C159.339 26.616 157.023 27.54 154.191 27.54C151.359 27.54 149.043 26.616 147.243 24.768C145.443 22.896 144.543 20.568 144.543 17.784C144.543 15 145.443 12.684 147.243 10.836C149.043 8.964 151.359 8.028 154.191 8.028C157.023 8.028 159.339 8.964 161.139 10.836C162.939 12.684 163.839 15 163.839 17.784C163.839 20.568 162.939 22.896 161.139 24.768ZM154.191 23.796C155.655 23.796 156.795 23.256 157.611 22.176C158.451 21.072 158.871 19.608 158.871 17.784C158.871 15.96 158.451 14.496 157.611 13.392C156.795 12.288 155.655 11.736 154.191 11.736C152.703 11.736 151.551 12.288 150.735 13.392C149.919 14.472 149.511 15.936 149.511 17.784C149.511 19.608 149.919 21.072 150.735 22.176C151.551 23.256 152.703 23.796 154.191 23.796ZM170.903 8.532V11.052H171.011C172.283 9.036 174.107 8.028 176.483 8.028C178.379 8.028 179.915 8.676 181.091 9.972C182.267 11.244 182.855 12.9 182.855 14.94V27H177.959V15.66C177.959 14.652 177.671 13.836 177.095 13.212C176.543 12.588 175.763 12.276 174.755 12.276C173.675 12.276 172.775 12.672 172.055 13.464C171.359 14.256 171.011 15.276 171.011 16.524V27H166.115V8.532H170.903Z" fill="black"/>
</svg>
