<svg width="174" height="246" viewBox="0 0 174 246" fill="none" xmlns="http://www.w3.org/2000/svg">
<g clip-path="url(#clip0_373_40)">
<rect width="173.435" height="245.432" fill="#FF7152"/>
<path d="M29.8993 91.3866C21.5627 91.3866 14.7492 88.6077 9.45875 83.05C4.2217 77.4389 1.60318 70.3048 1.60318 61.6476C1.60318 52.9904 4.19498 45.8296 9.37859 40.165C14.5622 34.5005 21.3757 31.6682 29.8191 31.6682C36.3387 31.6682 41.7895 33.3515 46.1715 36.7182C51.1414 40.4589 54.0004 45.7227 54.7485 52.5095H40.5604C40.1863 49.891 39.0374 47.7267 37.1136 46.0166C35.1898 44.3066 32.7316 43.4515 29.739 43.4515C25.2501 43.4515 21.8299 45.1349 19.4786 48.5015C17.1807 51.8148 16.0318 56.1968 16.0318 61.6476C16.0318 66.9915 17.2876 71.3468 19.7993 74.7135C22.3109 78.0802 25.6508 79.7635 29.8191 79.7635C32.9186 79.7635 35.457 78.8818 37.4342 77.1183C39.4649 75.3548 40.6406 73.0569 40.9612 70.2246H55.1493C54.7218 75.9961 52.4239 80.8857 48.2557 84.8937C43.7668 89.2223 37.648 91.3866 29.8993 91.3866ZM81.4533 79.9238C85.9422 79.9238 89.3624 78.2405 91.7137 74.8738C94.1185 71.4537 95.3208 67.0183 95.3208 61.5674C95.3208 56.1166 94.1185 51.6812 91.7137 48.2611C89.3624 44.841 85.9422 43.1309 81.4533 43.1309C77.0179 43.1309 73.5711 44.841 71.1128 48.2611C68.7081 51.6812 67.5057 56.1166 67.5057 61.5674C67.5057 66.9648 68.7081 71.3736 71.1128 74.7937C73.5711 78.2138 77.0179 79.9238 81.4533 79.9238ZM101.974 83.05C96.7904 88.6612 89.9235 91.4667 81.3732 91.4667C72.8229 91.4667 65.956 88.6612 60.7723 83.05C55.6422 77.4389 53.0771 70.278 53.0771 61.5674C53.0771 52.8568 55.6422 45.696 60.7723 40.0849C65.956 34.4737 72.8229 31.6682 81.3732 31.6682C89.9235 31.6682 96.7904 34.4737 101.974 40.0849C107.158 45.696 109.749 52.8568 109.749 61.5674C109.749 70.278 107.158 77.4389 101.974 83.05ZM110.477 90.104V32.7904H124.745L141.738 61.5674L145.666 68.8619H145.827C145.72 64.2661 145.666 61.3003 145.666 59.9643V32.7904H159.534V90.104H145.265L128.432 61.7278L124.344 54.0325H124.184C124.291 58.9489 124.344 62.0751 124.344 63.4111V90.104H110.477ZM29.8993 152.387C21.5627 152.387 14.7492 149.608 9.45875 144.05C4.2217 138.439 1.60318 131.305 1.60318 122.648C1.60318 113.99 4.19498 106.83 9.37859 101.165C14.5622 95.5005 21.3757 92.6682 29.8191 92.6682C36.3387 92.6682 41.7895 94.3515 46.1715 97.7182C51.1414 101.459 54.0004 106.723 54.7485 113.509H40.5604C40.1863 110.891 39.0374 108.727 37.1136 107.017C35.1898 105.307 32.7316 104.452 29.739 104.452C25.2501 104.452 21.8299 106.135 19.4786 109.502C17.1807 112.815 16.0318 117.197 16.0318 122.648C16.0318 127.992 17.2876 132.347 19.7993 135.714C22.3109 139.08 25.6508 140.764 29.8191 140.764C32.9186 140.764 35.457 139.882 37.4342 138.118C39.4649 136.355 40.6406 134.057 40.9612 131.225H55.1493C54.7218 136.996 52.4239 141.886 48.2557 145.894C43.7668 150.222 37.648 152.387 29.8993 152.387ZM55.4017 151.104V93.7904H98.8478V105.494H69.5898V115.754H94.6796V126.816H69.5898V139.08H99.3288V151.104H55.4017ZM100.926 151.104V93.7904H126.737C133.471 93.7904 138.681 95.5539 142.368 99.0809C146.216 102.661 148.14 107.364 148.14 113.189C148.14 118.747 146.35 123.262 142.769 126.736C139.242 130.209 134.566 131.946 128.741 131.946H115.355V151.104H100.926ZM115.355 120.724H125.856C128.367 120.724 130.318 120.029 131.707 118.64C133.15 117.25 133.872 115.407 133.872 113.109C133.872 110.811 133.15 109.021 131.707 107.738C130.318 106.402 128.367 105.734 125.856 105.734H115.355V120.724ZM18.0358 213.104V167.814H1.3627V155.79H49.0573V167.814H32.2239V213.104H18.0358ZM49.6109 213.104V155.79H63.799V213.104H49.6109ZM92.9261 202.924C97.415 202.924 100.835 201.241 103.186 197.874C105.591 194.454 106.794 190.018 106.794 184.567C106.794 179.117 105.591 174.681 103.186 171.261C100.835 167.841 97.415 166.131 92.9261 166.131C88.4906 166.131 85.0438 167.841 82.5856 171.261C80.1808 174.681 78.9784 179.117 78.9784 184.567C78.9784 189.965 80.1808 194.374 82.5856 197.794C85.0438 201.214 88.4906 202.924 92.9261 202.924ZM113.447 206.05C108.263 211.661 101.396 214.467 92.8459 214.467C84.2957 214.467 77.4287 211.661 72.2451 206.05C67.1149 200.439 64.5498 193.278 64.5498 184.567C64.5498 175.857 67.1149 168.696 72.2451 163.085C77.4287 157.474 84.2957 154.668 92.8459 154.668C101.396 154.668 108.263 157.474 113.447 163.085C118.63 168.696 121.222 175.857 121.222 184.567C121.222 193.278 118.63 200.439 113.447 206.05ZM121.949 213.104V155.79H136.218L153.211 184.567L157.139 191.862H157.299C157.192 187.266 157.139 184.3 157.139 182.964V155.79H171.007V213.104H156.738L139.905 184.728L135.817 177.033H135.656C135.763 181.949 135.817 185.075 135.817 186.411V213.104H121.949Z" fill="#FFFBFA"/>
<rect width="173.435" height="28.8572" fill="#FFFBFA"/>
<rect y="216.575" width="173.435" height="28.8572" fill="#FFFBFA"/>
<path d="M29.8993 277.647C21.5627 277.647 14.7492 274.868 9.45875 269.31C4.2217 263.699 1.60318 256.565 1.60318 247.908C1.60318 239.251 4.19498 232.09 9.37859 226.425C14.5622 220.761 21.3757 217.928 29.8191 217.928C36.3387 217.928 41.7895 219.612 46.1715 222.978C51.1414 226.719 54.0004 231.983 54.7485 238.77H40.5604C40.1863 236.151 39.0374 233.987 37.1136 232.277C35.1898 230.567 32.7316 229.712 29.739 229.712C25.2501 229.712 21.8299 231.395 19.4786 234.762C17.1807 238.075 16.0318 242.457 16.0318 247.908C16.0318 253.252 17.2876 257.607 19.7993 260.974C22.3109 264.34 25.6508 266.024 29.8191 266.024C32.9186 266.024 35.457 265.142 37.4342 263.379C39.4649 261.615 40.6406 259.317 40.9612 256.485H55.1493C54.7218 262.256 52.4239 267.146 48.2557 271.154C43.7668 275.483 37.648 277.647 29.8993 277.647ZM81.4533 266.184C85.9422 266.184 89.3624 264.501 91.7137 261.134C94.1185 257.714 95.3208 253.278 95.3208 247.828C95.3208 242.377 94.1185 237.941 91.7137 234.521C89.3624 231.101 85.9422 229.391 81.4533 229.391C77.0179 229.391 73.5711 231.101 71.1128 234.521C68.7081 237.941 67.5057 242.377 67.5057 247.828C67.5057 253.225 68.7081 257.634 71.1128 261.054C73.5711 264.474 77.0179 266.184 81.4533 266.184ZM101.974 269.31C96.7904 274.921 89.9235 277.727 81.3732 277.727C72.8229 277.727 65.956 274.921 60.7723 269.31C55.6422 263.699 53.0771 256.538 53.0771 247.828C53.0771 239.117 55.6422 231.956 60.7723 226.345C65.956 220.734 72.8229 217.928 81.3732 217.928C89.9235 217.928 96.7904 220.734 101.974 226.345C107.158 231.956 109.749 239.117 109.749 247.828C109.749 256.538 107.158 263.699 101.974 269.31ZM110.477 276.364V219.051H124.745L141.738 247.828L145.666 255.122H145.827C145.72 250.526 145.666 247.56 145.666 246.225V219.051H159.534V276.364H145.265L128.432 247.988L124.344 240.293H124.184C124.291 245.209 124.344 248.335 124.344 249.671V276.364H110.477Z" fill="#FF7152"/>
<path d="M18.0358 26.5599V-18.7298H1.3627V-30.7537H49.0573V-18.7298H32.2239V26.5599H18.0358ZM49.6109 26.5599V-30.7537H63.799V26.5599H49.6109ZM92.9261 16.3798C97.415 16.3798 100.835 14.6964 103.186 11.3298C105.591 7.90964 106.794 3.47418 106.794 -1.97663C106.794 -7.42743 105.591 -11.8629 103.186 -15.283C100.835 -18.7031 97.415 -20.4132 92.9261 -20.4132C88.4906 -20.4132 85.0438 -18.7031 82.5856 -15.283C80.1808 -11.8629 78.9784 -7.42743 78.9784 -1.97663C78.9784 3.42074 80.1808 7.82948 82.5856 11.2496C85.0438 14.6697 88.4906 16.3798 92.9261 16.3798ZM113.447 19.506C108.263 25.1171 101.396 27.9226 92.8459 27.9226C84.2957 27.9226 77.4287 25.1171 72.2451 19.506C67.1149 13.8948 64.5498 6.73397 64.5498 -1.97663C64.5498 -10.6872 67.1149 -17.8481 72.2451 -23.4592C77.4287 -29.0703 84.2957 -31.8759 92.8459 -31.8759C101.396 -31.8759 108.263 -29.0703 113.447 -23.4592C118.63 -17.8481 121.222 -10.6872 121.222 -1.97663C121.222 6.73397 118.63 13.8948 113.447 19.506ZM121.949 26.5599V-30.7537H136.218L153.211 -1.97663L157.139 5.31783H157.299C157.192 0.722056 157.139 -2.24382 157.139 -3.57981V-30.7537H171.007V26.5599H156.738L139.905 -1.81631L135.817 -9.51156H135.656C135.763 -4.59515 135.817 -1.46895 135.817 -0.132972V26.5599H121.949Z" fill="#FF7152"/>
</g>
<defs>
<clipPath id="clip0_373_40">
<rect width="173.435" height="245.432" fill="white"/>
</clipPath>
</defs>
</svg>
