<svg width="249" height="33" viewBox="0 0 249 33" fill="none" xmlns="http://www.w3.org/2000/svg">
<path d="M0.98 26V0.259999H11.024C14.432 0.259999 17.168 1.496 19.232 3.968C21.296 6.416 22.328 9.56 22.328 13.4C22.328 17.84 20.96 21.212 18.224 23.516C16.232 25.172 13.688 26 10.592 26H0.98ZM6.2 21.5H10.232C12.608 21.5 14.336 20.816 15.416 19.448C16.496 18.056 17.036 16.04 17.036 13.4C17.036 10.76 16.46 8.66 15.308 7.1C14.18 5.516 12.536 4.724 10.376 4.724H6.2V21.5ZM33.4475 26.54C30.4715 26.54 28.1315 25.628 26.4275 23.804C24.7235 21.956 23.8715 19.604 23.8715 16.748C23.8715 13.988 24.7235 11.684 26.4275 9.836C28.1315 7.964 30.3155 7.028 32.9795 7.028C35.8835 7.028 38.1275 8.036 39.7115 10.052C41.2955 12.068 42.0875 14.768 42.0875 18.152H28.6955C28.8875 19.616 29.3795 20.756 30.1715 21.572C30.9635 22.364 32.0435 22.76 33.4115 22.76C35.2115 22.76 36.3995 22.004 36.9755 20.492H41.7995C41.4395 22.22 40.5275 23.66 39.0635 24.812C37.5995 25.964 35.7275 26.54 33.4475 26.54ZM33.0515 10.808C30.6755 10.808 29.2475 12.128 28.7675 14.768H36.9755C36.9035 13.592 36.5075 12.644 35.7875 11.924C35.0675 11.18 34.1555 10.808 33.0515 10.808ZM38.7395 0.151998L34.8515 5.228H31.0355L33.0155 0.151998H38.7395ZM48.898 26L42.49 7.532H47.458L50.41 17.108L51.238 20.06H51.31C51.478 19.268 51.742 18.284 52.102 17.108L55.126 7.532H60.022L53.578 26H48.898ZM69.8342 26.54C66.8582 26.54 64.5182 25.628 62.8142 23.804C61.1102 21.956 60.2582 19.604 60.2582 16.748C60.2582 13.988 61.1102 11.684 62.8142 9.836C64.5182 7.964 66.7022 7.028 69.3662 7.028C72.2702 7.028 74.5142 8.036 76.0982 10.052C77.6822 12.068 78.4742 14.768 78.4742 18.152H65.0822C65.2742 19.616 65.7662 20.756 66.5582 21.572C67.3502 22.364 68.4302 22.76 69.7982 22.76C71.5982 22.76 72.7862 22.004 73.3622 20.492H78.1862C77.8262 22.22 76.9142 23.66 75.4502 24.812C73.9862 25.964 72.1142 26.54 69.8342 26.54ZM69.4382 10.808C67.0622 10.808 65.6342 12.128 65.1542 14.768H73.3622C73.2902 13.592 72.8942 12.644 72.1742 11.924C71.4542 11.18 70.5422 10.808 69.4382 10.808ZM80.8123 26V0.259999H85.7083V26H80.8123ZM104.628 23.768C102.828 25.616 100.512 26.54 97.6797 26.54C94.8477 26.54 92.5317 25.616 90.7317 23.768C88.9317 21.896 88.0317 19.568 88.0317 16.784C88.0317 14 88.9317 11.684 90.7317 9.836C92.5317 7.964 94.8477 7.028 97.6797 7.028C100.512 7.028 102.828 7.964 104.628 9.836C106.428 11.684 107.328 14 107.328 16.784C107.328 19.568 106.428 21.896 104.628 23.768ZM97.6797 22.796C99.1437 22.796 100.284 22.256 101.1 21.176C101.94 20.072 102.36 18.608 102.36 16.784C102.36 14.96 101.94 13.496 101.1 12.392C100.284 11.288 99.1437 10.736 97.6797 10.736C96.1917 10.736 95.0397 11.288 94.2237 12.392C93.4077 13.472 92.9997 14.936 92.9997 16.784C92.9997 18.608 93.4077 20.072 94.2237 21.176C95.0397 22.256 96.1917 22.796 97.6797 22.796ZM109.604 32.048V7.532H114.32V9.836H114.428C115.796 7.964 117.608 7.028 119.864 7.028C122.288 7.028 124.232 7.928 125.696 9.728C127.16 11.528 127.892 13.88 127.892 16.784C127.892 19.76 127.16 22.136 125.696 23.912C124.232 25.664 122.3 26.54 119.9 26.54C117.5 26.54 115.724 25.664 114.572 23.912H114.5V32.048H109.604ZM118.856 22.472C120.104 22.472 121.088 21.98 121.808 20.996C122.552 20.012 122.924 18.656 122.924 16.928C122.924 15.08 122.576 13.628 121.88 12.572C121.184 11.516 120.116 10.988 118.676 10.988C117.212 10.988 116.132 11.54 115.436 12.644C114.74 13.724 114.392 15.152 114.392 16.928C114.392 18.632 114.776 19.988 115.544 20.996C116.312 21.98 117.416 22.472 118.856 22.472ZM130.17 32.048V7.532H134.886V9.836H134.994C136.362 7.964 138.174 7.028 140.43 7.028C142.854 7.028 144.798 7.928 146.262 9.728C147.726 11.528 148.458 13.88 148.458 16.784C148.458 19.76 147.726 22.136 146.262 23.912C144.798 25.664 142.866 26.54 140.466 26.54C138.066 26.54 136.29 25.664 135.138 23.912H135.066V32.048H130.17ZM139.422 22.472C140.67 22.472 141.654 21.98 142.374 20.996C143.118 20.012 143.49 18.656 143.49 16.928C143.49 15.08 143.142 13.628 142.446 12.572C141.75 11.516 140.682 10.988 139.242 10.988C137.778 10.988 136.698 11.54 136.002 12.644C135.306 13.724 134.958 15.152 134.958 16.928C134.958 18.632 135.342 19.988 136.11 20.996C136.878 21.98 137.982 22.472 139.422 22.472ZM159.412 26.54C156.436 26.54 154.096 25.628 152.392 23.804C150.688 21.956 149.836 19.604 149.836 16.748C149.836 13.988 150.688 11.684 152.392 9.836C154.096 7.964 156.28 7.028 158.944 7.028C161.848 7.028 164.092 8.036 165.676 10.052C167.26 12.068 168.052 14.768 168.052 18.152H154.66C154.852 19.616 155.344 20.756 156.136 21.572C156.928 22.364 158.008 22.76 159.376 22.76C161.176 22.76 162.364 22.004 162.94 20.492H167.764C167.404 22.22 166.492 23.66 165.028 24.812C163.564 25.964 161.692 26.54 159.412 26.54ZM159.016 10.808C156.64 10.808 155.212 12.128 154.732 14.768H162.94C162.868 13.592 162.472 12.644 161.752 11.924C161.032 11.18 160.12 10.808 159.016 10.808ZM170.318 26V7.532H175.034V10.016H175.142C176.318 8.024 178.106 7.028 180.506 7.028C181.658 7.028 182.678 7.328 183.566 7.928C184.478 8.504 185.162 9.284 185.618 10.268H185.69C187.034 8.108 188.882 7.028 191.234 7.028C193.154 7.028 194.642 7.616 195.698 8.792C196.778 9.944 197.318 11.54 197.318 13.58V26H192.422V14.408C192.422 12.296 191.474 11.24 189.578 11.24C188.546 11.24 187.73 11.612 187.13 12.356C186.554 13.076 186.266 14.048 186.266 15.272V26H181.37V14.408C181.37 12.296 180.422 11.24 178.526 11.24C177.542 11.24 176.738 11.612 176.114 12.356C175.514 13.076 175.214 14.048 175.214 15.272V26H170.318ZM209.018 26.54C206.042 26.54 203.702 25.628 201.998 23.804C200.294 21.956 199.442 19.604 199.442 16.748C199.442 13.988 200.294 11.684 201.998 9.836C203.702 7.964 205.886 7.028 208.55 7.028C211.454 7.028 213.698 8.036 215.282 10.052C216.866 12.068 217.658 14.768 217.658 18.152H204.266C204.458 19.616 204.95 20.756 205.742 21.572C206.534 22.364 207.614 22.76 208.982 22.76C210.782 22.76 211.97 22.004 212.546 20.492H217.37C217.01 22.22 216.098 23.66 214.634 24.812C213.17 25.964 211.298 26.54 209.018 26.54ZM208.622 10.808C206.246 10.808 204.818 12.128 204.338 14.768H212.546C212.474 13.592 212.078 12.644 211.358 11.924C210.638 11.18 209.726 10.808 208.622 10.808ZM224.712 7.532V10.052H224.82C226.092 8.036 227.916 7.028 230.292 7.028C232.188 7.028 233.724 7.676 234.9 8.972C236.076 10.244 236.664 11.9 236.664 13.94V26H231.768V14.66C231.768 13.652 231.48 12.836 230.904 12.212C230.352 11.588 229.572 11.276 228.564 11.276C227.484 11.276 226.584 11.672 225.864 12.464C225.168 13.256 224.82 14.276 224.82 15.524V26H219.924V7.532H224.712ZM238.25 10.772V7.532H240.806V1.772H245.594V7.532H248.762V10.772H245.594V20.564C245.594 21.788 246.206 22.4 247.43 22.4L248.87 22.364V25.964C248.126 26.012 247.106 26.036 245.81 26.036C244.394 26.036 243.206 25.7 242.246 25.028C241.286 24.332 240.806 23.192 240.806 21.608V10.772H238.25Z" fill="black"/>
</svg>
