<svg width="174" height="246" viewBox="0 0 174 246" fill="none" xmlns="http://www.w3.org/2000/svg">
<g clip-path="url(#clip0_373_93)">
<rect width="173.435" height="245.432" transform="translate(0.283203)" fill="#DAFFB5"/>
<path d="M13.7878 75.2005H20.0023C23.4282 75.2005 26.0375 74.1648 27.8302 72.0933C29.6228 69.982 30.5191 66.9544 30.5191 63.0106C30.5191 59.0667 29.6029 55.9595 27.7704 53.6888C25.9379 51.3783 23.3884 50.223 20.1218 50.223H13.7878V75.2005ZM3.21119 84.104V41.3793H21.4364C27.3721 41.3793 32.1524 43.3512 35.7776 47.295C39.4027 51.2389 41.2153 56.4774 41.2153 63.0106C41.2153 70.699 38.7454 76.4355 33.8057 80.22C30.3399 82.8093 25.9977 84.104 20.7791 84.104H3.21119ZM54.5453 39.2879L57.1147 31.5198H68.2889L61.9549 39.2879H54.5453ZM41.7577 84.104V41.3793H74.1448V50.1035H52.3343V57.7521H71.0376V65.9983H52.3343V75.1408H74.5034V84.104H41.7577ZM86.7489 84.104L72.6468 41.3793H83.6417L90.3342 63.7874L92.3061 71.3165H92.4256C93.1427 68.4084 93.8 65.8987 94.3975 63.7874L101.03 41.3793H111.726L97.684 84.104H86.7489ZM111.031 84.104V41.3793H143.418V50.1035H121.608V57.7521H140.311V65.9983H121.608V75.1408H143.777V84.104H111.031ZM144.968 84.104V41.3793H155.544V75.1408H174.726V84.104H144.968ZM22.6315 137.515C25.9778 137.515 28.5273 136.26 30.2801 133.751C32.0728 131.201 32.9691 127.895 32.9691 123.831C32.9691 119.768 32.0728 116.462 30.2801 113.912C28.5273 111.362 25.9778 110.088 22.6315 110.088C19.3251 110.088 16.7556 111.362 14.9231 113.912C13.1305 116.462 12.2342 119.768 12.2342 123.831C12.2342 127.855 13.1305 131.141 14.9231 133.691C16.7556 136.24 19.3251 137.515 22.6315 137.515ZM37.9287 139.846C34.0646 144.028 28.9456 146.12 22.5718 146.12C16.1979 146.12 11.0789 144.028 7.21476 139.846C3.39045 135.663 1.4783 130.325 1.4783 123.831C1.4783 117.338 3.39045 112 7.21476 107.817C11.0789 103.634 16.1979 101.543 22.5718 101.543C28.9456 101.543 34.0646 103.634 37.9287 107.817C41.7929 112 43.725 117.338 43.725 123.831C43.725 130.325 41.7929 135.663 37.9287 139.846ZM44.267 145.104V102.379H63.508C68.5274 102.379 72.4115 103.694 75.1602 106.323C78.0284 108.992 79.4625 112.498 79.4625 116.84C79.4625 120.983 78.128 124.349 75.459 126.939C72.8298 129.528 69.3441 130.823 65.0019 130.823H55.0228V145.104H44.267ZM55.0228 122.457H62.8507C64.723 122.457 66.1771 121.939 67.2128 120.903C68.2884 119.868 68.8262 118.493 68.8262 116.78C68.8262 115.067 68.2884 113.733 67.2128 112.777C66.1771 111.781 64.723 111.283 62.8507 111.283H55.0228V122.457ZM79.6624 145.104V102.379H98.9034C103.923 102.379 107.807 103.694 110.556 106.323C113.424 108.992 114.858 112.498 114.858 116.84C114.858 120.983 113.523 124.349 110.854 126.939C108.225 129.528 104.739 130.823 100.397 130.823H90.4182V145.104H79.6624ZM90.4182 122.457H98.2461C100.118 122.457 101.572 121.939 102.608 120.903C103.684 119.868 104.222 118.493 104.222 116.78C104.222 115.067 103.684 113.733 102.608 112.777C101.572 111.781 100.118 111.283 98.2461 111.283H90.4182V122.457ZM115.058 145.104V102.379H147.445V111.104H125.634V118.752H144.338V126.998H125.634V136.141H147.803V145.104H115.058ZM3.21119 206.104V163.379H17.4328L22.6315 182.083L25.0815 191.823H25.201C26.3164 187.122 27.1131 183.875 27.5912 182.083L32.8496 163.379H47.1907V206.104H37.5105V184.592L37.6897 176.047H37.5702C36.5743 180.31 35.917 182.959 35.5983 183.995L29.4436 206.104H20.7194L14.6244 184.054L12.6525 176.047H12.5329C12.6525 180.629 12.7122 183.497 12.7122 184.652V206.104H3.21119ZM49.4605 206.104V163.379H81.8476V172.104H60.0371V179.752H78.7404V187.998H60.0371V197.141H82.2061V206.104H49.4605ZM83.397 206.104V163.379H94.0334L106.701 184.831L109.629 190.269H109.749C109.669 186.843 109.629 184.632 109.629 183.636V163.379H119.967V206.104H109.331L96.7821 184.951L93.7346 179.214H93.6151C93.6948 182.879 93.7346 185.21 93.7346 186.206V206.104H83.397ZM132.752 206.104V172.343H120.323V163.379H155.877V172.343H143.329V206.104H132.752Z" fill="#0F1F13"/>
<rect x="0.283203" y="5.34058e-05" width="173.435" height="28.8572" fill="#0F1F13"/>
<rect x="0.283203" y="216.575" width="173.435" height="28.8572" fill="#0F1F13"/>
<path d="M13.7878 261.461H20.0023C23.4282 261.461 26.0375 260.425 27.8302 258.354C29.6228 256.242 30.5191 253.215 30.5191 249.271C30.5191 245.327 29.6029 242.22 27.7704 239.949C25.9379 237.639 23.3884 236.483 20.1218 236.483H13.7878V261.461ZM3.21119 270.364V227.64H21.4364C27.3721 227.64 32.1524 229.611 35.7776 233.555C39.4027 237.499 41.2153 242.738 41.2153 249.271C41.2153 256.959 38.7454 262.696 33.8057 266.48C30.3399 269.07 25.9977 270.364 20.7791 270.364H3.21119ZM54.5453 225.548L57.1147 217.78H68.2889L61.9549 225.548H54.5453ZM41.7577 270.364V227.64H74.1448V236.364H52.3343V244.012H71.0376V252.259H52.3343V261.401H74.5034V270.364H41.7577ZM86.7489 270.364L72.6468 227.64H83.6417L90.3342 250.048L92.3061 257.577H92.4256C93.1427 254.669 93.8 252.159 94.3975 250.048L101.03 227.64H111.726L97.684 270.364H86.7489ZM111.031 270.364V227.64H143.418V236.364H121.608V244.012H140.311V252.259H121.608V261.401H143.777V270.364H111.031ZM144.968 270.364V227.64H155.544V261.401H174.726V270.364H144.968Z" fill="#DAFFB5"/>
<path d="M3.21119 20.8514V-21.8733H17.4328L22.6315 -3.17001L25.0815 6.57003H25.201C26.3164 1.86931 27.1131 -1.37737 27.5912 -3.17001L32.8496 -21.8733H47.1907V20.8514H37.5105V-0.660309L37.6897 -9.20525H37.5702C36.5743 -4.94274 35.917 -2.29361 35.5983 -1.25786L29.4436 20.8514H20.7194L14.6244 -1.1981L12.6525 -9.20525H12.5329C12.6525 -4.62405 12.7122 -1.75581 12.7122 -0.600555V20.8514H3.21119ZM49.4605 20.8514V-21.8733H81.8476V-13.1491H60.0371V-5.50045H78.7404V2.74572H60.0371V11.8882H82.2061V20.8514H49.4605ZM83.397 20.8514V-21.8733H94.0334L106.701 -0.421289L109.629 5.0164H109.749C109.669 1.59046 109.629 -0.620472 109.629 -1.61639V-21.8733H119.967V20.8514H109.331L96.7821 -0.301779L93.7346 -6.03824H93.6151C93.6948 -2.37328 93.7346 -0.0428422 93.7346 0.953072V20.8514H83.397ZM132.752 20.8514V-12.91H120.323V-21.8733H155.877V-12.91H143.329V20.8514H132.752Z" fill="#DAFFB5"/>
</g>
<defs>
<clipPath id="clip0_373_93">
<rect width="173.435" height="245.432" fill="white" transform="translate(0.283203)"/>
</clipPath>
</defs>
</svg>
