<svg width="238" height="238" viewBox="0 0 238 238" fill="none" xmlns="http://www.w3.org/2000/svg">
<circle cx="119" cy="119" r="119" fill="#272727"/>
<rect width="49.3119" height="21.1364" rx="10.5682" transform="matrix(-0.49564 0.868528 0.868528 0.49564 197.142 114)" fill="white"/>
<path d="M192.5 163.571L195.5 158.5L179.5 146L169 163.571H192.5Z" fill="white" stroke="white"/>
<path d="M93.76 164L75.072 130.08H69.824V164H47.936V74.144H84.672C91.7547 74.144 97.7707 75.3813 102.72 77.856C107.755 80.3307 111.509 83.744 113.984 88.096C116.459 92.3627 117.696 97.1413 117.696 102.432C117.696 108.405 115.989 113.739 112.576 118.432C109.248 123.125 104.299 126.453 97.728 128.416L118.464 164H93.76ZM69.824 114.592H83.392C87.4027 114.592 90.3893 113.611 92.352 111.648C94.4 109.685 95.424 106.912 95.424 103.328C95.424 99.9147 94.4 97.2267 92.352 95.264C90.3893 93.3013 87.4027 92.32 83.392 92.32H69.824V114.592Z" fill="white"/>
<rect x="133.358" y="114" width="49.3119" height="21.1364" rx="10.5682" transform="rotate(60.2881 133.358 114)" fill="white"/>
<path d="M138 163.571L135 158.5L151 146L161.5 163.571H138Z" fill="white" stroke="white"/>
<circle cx="165" cy="128.5" r="10.5" fill="white"/>
</svg>
