<svg width="168" height="33" viewBox="0 0 168 33" fill="none" xmlns="http://www.w3.org/2000/svg">
<path d="M0.0160001 26V0.259999H5.236V26H0.0160001ZM13.6181 7.532V10.052H13.7261C14.9981 8.036 16.8221 7.028 19.1981 7.028C21.0941 7.028 22.6301 7.676 23.8061 8.972C24.9821 10.244 25.5701 11.9 25.5701 13.94V26H20.6741V14.66C20.6741 13.652 20.3861 12.836 19.8101 12.212C19.2581 11.588 18.4781 11.276 17.4701 11.276C16.3901 11.276 15.4901 11.672 14.7701 12.464C14.0741 13.256 13.7261 14.276 13.7261 15.524V26H8.83009V7.532H13.6181ZM27.1563 10.772V7.532H29.7123V1.772H34.5003V7.532H37.6683V10.772H34.5003V20.564C34.5003 21.788 35.1123 22.4 36.3363 22.4L37.7763 22.364V25.964C37.0323 26.012 36.0123 26.036 34.7163 26.036C33.3003 26.036 32.1123 25.7 31.1523 25.028C30.1923 24.332 29.7123 23.192 29.7123 21.608V10.772H27.1563ZM48.6897 26.54C45.7137 26.54 43.3737 25.628 41.6697 23.804C39.9657 21.956 39.1137 19.604 39.1137 16.748C39.1137 13.988 39.9657 11.684 41.6697 9.836C43.3737 7.964 45.5577 7.028 48.2217 7.028C51.1257 7.028 53.3697 8.036 54.9537 10.052C56.5377 12.068 57.3297 14.768 57.3297 18.152H43.9377C44.1297 19.616 44.6217 20.756 45.4137 21.572C46.2057 22.364 47.2857 22.76 48.6537 22.76C50.4537 22.76 51.6417 22.004 52.2177 20.492H57.0417C56.6817 22.22 55.7697 23.66 54.3057 24.812C52.8417 25.964 50.9697 26.54 48.6897 26.54ZM48.2937 10.808C45.9177 10.808 44.4897 12.128 44.0097 14.768H52.2177C52.1457 13.592 51.7497 12.644 51.0297 11.924C50.3097 11.18 49.3977 10.808 48.2937 10.808ZM53.9817 0.151998L50.0937 5.228H46.2777L48.2577 0.151998H53.9817ZM67.7317 32.3C65.2357 32.3 63.2317 31.796 61.7197 30.788C60.2317 29.78 59.3557 28.364 59.0917 26.54H63.9517C64.4317 27.908 65.6677 28.592 67.6597 28.592C70.3957 28.592 71.7637 27.308 71.7637 24.74V22.724H71.6557C70.3837 24.164 68.7757 24.884 66.8317 24.884C64.6477 24.884 62.7397 24.08 61.1077 22.472C59.4997 20.864 58.6957 18.728 58.6957 16.064C58.6957 13.328 59.4397 11.144 60.9277 9.512C62.4157 7.856 64.3357 7.028 66.6877 7.028C68.9197 7.028 70.6237 7.844 71.7997 9.476H71.8717V7.532H76.5877V24.596C76.5877 26.996 75.8557 28.868 74.3917 30.212C72.9037 31.604 70.6837 32.3 67.7317 32.3ZM67.6597 20.96C69.1237 20.96 70.2157 20.492 70.9357 19.556C71.6557 18.62 72.0157 17.42 72.0157 15.956C72.0157 14.516 71.6317 13.328 70.8637 12.392C70.1197 11.432 69.0397 10.952 67.6237 10.952C66.3757 10.952 65.3677 11.408 64.5997 12.32C63.8557 13.232 63.4837 14.456 63.4837 15.992C63.4837 17.552 63.8557 18.776 64.5997 19.664C65.3677 20.528 66.3877 20.96 67.6597 20.96ZM84.4563 7.532V10.484H84.5643C85.1403 9.404 85.7763 8.612 86.4723 8.108C87.1683 7.58 88.0443 7.316 89.1003 7.316C89.6043 7.316 89.9883 7.364 90.2523 7.46V11.744H90.1443C88.4883 11.576 87.1563 11.936 86.1483 12.824C85.1403 13.712 84.6363 15.104 84.6363 17V26H79.7403V7.532H84.4563ZM103.462 26C103.222 25.688 103.03 25.004 102.886 23.948H102.814C102.286 24.74 101.614 25.352 100.798 25.784C99.982 26.216 98.842 26.432 97.378 26.432C95.434 26.432 93.874 25.94 92.698 24.956C91.522 23.972 90.934 22.58 90.934 20.78C90.934 18.908 91.582 17.54 92.878 16.676C94.174 15.788 95.998 15.176 98.35 14.84C100.078 14.6 101.254 14.36 101.878 14.12C102.502 13.856 102.814 13.4 102.814 12.752C102.814 12.08 102.55 11.552 102.022 11.168C101.494 10.76 100.726 10.556 99.718 10.556C97.486 10.556 96.298 11.42 96.154 13.148H91.798C91.87 11.396 92.578 9.944 93.922 8.792C95.266 7.64 97.21 7.064 99.754 7.064C104.938 7.064 107.53 9.332 107.53 13.868V23.264C107.53 24.656 107.746 25.508 108.178 25.82V26H103.462ZM98.566 23.012C99.91 23.012 100.966 22.664 101.734 21.968C102.526 21.272 102.922 20.444 102.922 19.484V16.712C102.394 17.024 101.254 17.384 99.502 17.792C98.11 18.104 97.126 18.464 96.55 18.872C95.974 19.256 95.686 19.856 95.686 20.672C95.686 22.232 96.646 23.012 98.566 23.012ZM109.211 10.772V7.532H111.767V1.772H116.555V7.532H119.723V10.772H116.555V20.564C116.555 21.788 117.167 22.4 118.391 22.4L119.831 22.364V25.964C119.087 26.012 118.067 26.036 116.771 26.036C115.355 26.036 114.167 25.7 113.207 25.028C112.247 24.332 111.767 23.192 111.767 21.608V10.772H109.211ZM122.244 26V7.532H127.14V26H122.244ZM122.244 4.652V0.259999H127.14V4.652H122.244ZM145.991 23.768C144.191 25.616 141.875 26.54 139.043 26.54C136.211 26.54 133.895 25.616 132.095 23.768C130.295 21.896 129.395 19.568 129.395 16.784C129.395 14 130.295 11.684 132.095 9.836C133.895 7.964 136.211 7.028 139.043 7.028C141.875 7.028 144.191 7.964 145.991 9.836C147.791 11.684 148.691 14 148.691 16.784C148.691 19.568 147.791 21.896 145.991 23.768ZM139.043 22.796C140.507 22.796 141.647 22.256 142.463 21.176C143.303 20.072 143.723 18.608 143.723 16.784C143.723 14.96 143.303 13.496 142.463 12.392C141.647 11.288 140.507 10.736 139.043 10.736C137.555 10.736 136.403 11.288 135.587 12.392C134.771 13.472 134.363 14.936 134.363 16.784C134.363 18.608 134.771 20.072 135.587 21.176C136.403 22.256 137.555 22.796 139.043 22.796ZM155.755 7.532V10.052H155.863C157.135 8.036 158.959 7.028 161.335 7.028C163.231 7.028 164.767 7.676 165.943 8.972C167.119 10.244 167.707 11.9 167.707 13.94V26H162.811V14.66C162.811 13.652 162.523 12.836 161.947 12.212C161.395 11.588 160.615 11.276 159.607 11.276C158.527 11.276 157.627 11.672 156.907 12.464C156.211 13.256 155.863 14.276 155.863 15.524V26H150.967V7.532H155.755Z" fill="black"/>
</svg>
