<svg width="174" height="246" viewBox="0 0 174 246" fill="none" xmlns="http://www.w3.org/2000/svg">
<g clip-path="url(#clip0_373_99)">
<rect width="173.435" height="245.432" transform="translate(0.375977)" fill="#137462"/>
<path d="M4.38392 90.104V32.7904H18.572V90.104H4.38392ZM21.6475 90.104V32.7904H35.9158L52.9095 61.5674L56.8373 68.8619H56.9976C56.8907 64.2661 56.8373 61.3003 56.8373 59.9643V32.7904H70.7048V90.104H56.4365L39.6031 61.7278L35.515 54.0325H35.3547C35.4616 58.9489 35.515 62.0751 35.515 63.4111V90.104H21.6475ZM87.8556 90.104V44.8142H71.1826V32.7904H118.877V44.8142H102.044V90.104H87.8556ZM119.351 90.104V32.7904H162.797V44.4936H133.539V54.7539H158.628V65.8159H133.539V78.0802H163.278V90.104H119.351ZM29.3133 152.387C21.1906 152.387 14.671 149.715 9.75457 144.371C4.6244 138.76 2.05931 131.519 2.05931 122.648C2.05931 113.403 4.8916 105.948 10.5562 100.283C15.526 95.2065 22.0723 92.6682 30.1951 92.6682C37.4094 92.6682 43.2076 94.4584 47.5896 98.0388C51.9716 101.566 54.6436 106.402 55.6055 112.548H41.8181C41.2837 110.143 40.0279 108.192 38.0507 106.696C36.1268 105.146 33.6686 104.371 30.676 104.371C26.0803 104.371 22.5533 106.055 20.0951 109.421C17.6903 112.788 16.4879 117.197 16.4879 122.648C16.4879 127.992 17.7972 132.374 20.4157 135.794C23.0342 139.214 26.5345 140.924 30.9165 140.924C34.4435 140.924 37.3025 139.935 39.4935 137.958C41.738 135.981 43.0205 133.629 43.3412 130.904V130.744H32.5999V120.323H56.4872V151.104H46.5475L45.7459 144.21H45.5856C42.0586 149.661 36.6345 152.387 29.3133 152.387ZM58.5958 151.104V93.7904H86.0101C91.8884 93.7904 96.698 95.26 100.439 98.1991C104.179 101.085 106.05 105.12 106.05 110.303C106.05 117.25 102.737 121.873 96.1101 124.171V124.411C100.92 126.014 103.699 129.515 104.447 134.912C104.767 136.782 104.981 139.107 105.088 141.886C105.248 144.611 105.435 146.669 105.649 148.058C105.863 149.394 106.264 150.169 106.851 150.383V151.104H93.0641C92.6366 150.837 92.2892 150.062 92.022 148.779C91.8083 147.497 91.6212 145.68 91.4609 143.329C91.3006 140.977 91.1136 139.134 90.8998 137.798C90.1517 132.347 86.972 129.621 81.3609 129.621H72.7839V151.104H58.5958ZM72.7839 119.121H83.445C86.2239 119.121 88.3347 118.506 89.7776 117.277C91.2204 116.048 91.9419 114.338 91.9419 112.147C91.9419 110.009 91.2472 108.299 89.8577 107.017C88.4683 105.681 86.4376 105.013 83.7657 105.013H72.7839V119.121ZM104.34 151.104L124.94 93.7904H139.529L160.21 151.104H145.301L141.934 140.764H121.894L118.608 151.104H104.34ZM125.181 130.583H138.648L134.319 116.716L132.075 108.62H131.914C131.006 112.04 130.231 114.739 129.59 116.716L125.181 130.583ZM18.4117 213.104V167.814H1.73868V155.79H49.4332V167.814H32.5999V213.104H18.4117ZM49.9868 213.104V155.79H64.175V213.104H49.9868ZM93.3021 202.924C97.791 202.924 101.211 201.241 103.562 197.874C105.967 194.454 107.17 190.018 107.17 184.567C107.17 179.117 105.967 174.681 103.562 171.261C101.211 167.841 97.791 166.131 93.3021 166.131C88.8666 166.131 85.4198 167.841 82.9616 171.261C80.5568 174.681 79.3544 179.117 79.3544 184.567C79.3544 189.965 80.5568 194.374 82.9616 197.794C85.4198 201.214 88.8666 202.924 93.3021 202.924ZM113.823 206.05C108.639 211.661 101.772 214.467 93.2219 214.467C84.6716 214.467 77.8047 211.661 72.6211 206.05C67.4909 200.439 64.9258 193.278 64.9258 184.567C64.9258 175.857 67.4909 168.696 72.6211 163.085C77.8047 157.474 84.6716 154.668 93.2219 154.668C101.772 154.668 108.639 157.474 113.823 163.085C119.006 168.696 121.598 175.857 121.598 184.567C121.598 193.278 119.006 200.439 113.823 206.05ZM122.325 213.104V155.79H136.594L153.587 184.567L157.515 191.862H157.675C157.568 187.266 157.515 184.3 157.515 182.964V155.79H171.382V213.104H157.114L140.281 184.728L136.193 177.033H136.032C136.139 181.949 136.193 185.075 136.193 186.411V213.104H122.325Z" fill="#F8FFFE"/>
<rect x="0.375977" y="5.34058e-05" width="173.435" height="28.8572" fill="#F8FFFE"/>
<rect x="0.375977" y="216.575" width="173.435" height="28.8572" fill="#F8FFFE"/>
<path d="M4.38392 276.364V219.051H18.572V276.364H4.38392ZM21.6475 276.364V219.051H35.9158L52.9095 247.828L56.8373 255.122H56.9976C56.8907 250.526 56.8373 247.56 56.8373 246.225V219.051H70.7048V276.364H56.4365L39.6031 247.988L35.515 240.293H35.3547C35.4616 245.209 35.515 248.335 35.515 249.671V276.364H21.6475ZM87.8556 276.364V231.074H71.1826V219.051H118.877V231.074H102.044V276.364H87.8556ZM119.351 276.364V219.051H162.797V230.754H133.539V241.014H158.628V252.076H133.539V264.34H163.278V276.364H119.351Z" fill="#137462"/>
<path d="M18.4117 26.5599V-18.7298H1.73868V-30.7537H49.4332V-18.7298H32.5999V26.5599H18.4117ZM49.9868 26.5599V-30.7537H64.175V26.5599H49.9868ZM93.3021 16.3798C97.791 16.3798 101.211 14.6964 103.562 11.3298C105.967 7.90964 107.17 3.47418 107.17 -1.97663C107.17 -7.42743 105.967 -11.8629 103.562 -15.283C101.211 -18.7031 97.791 -20.4132 93.3021 -20.4132C88.8666 -20.4132 85.4198 -18.7031 82.9616 -15.283C80.5568 -11.8629 79.3544 -7.42743 79.3544 -1.97663C79.3544 3.42074 80.5568 7.82948 82.9616 11.2496C85.4198 14.6697 88.8666 16.3798 93.3021 16.3798ZM113.823 19.506C108.639 25.1171 101.772 27.9226 93.2219 27.9226C84.6716 27.9226 77.8047 25.1171 72.6211 19.506C67.4909 13.8948 64.9258 6.73397 64.9258 -1.97663C64.9258 -10.6872 67.4909 -17.8481 72.6211 -23.4592C77.8047 -29.0703 84.6716 -31.8759 93.2219 -31.8759C101.772 -31.8759 108.639 -29.0703 113.823 -23.4592C119.006 -17.8481 121.598 -10.6872 121.598 -1.97663C121.598 6.73397 119.006 13.8948 113.823 19.506ZM122.325 26.5599V-30.7537H136.594L153.587 -1.97663L157.515 5.31783H157.675C157.568 0.722056 157.515 -2.24382 157.515 -3.57981V-30.7537H171.382V26.5599H157.114L140.281 -1.81631L136.193 -9.51156H136.032C136.139 -4.59515 136.193 -1.46895 136.193 -0.132972V26.5599H122.325Z" fill="#137462"/>
</g>
<defs>
<clipPath id="clip0_373_99">
<rect width="173.435" height="245.432" fill="white" transform="translate(0.375977)"/>
</clipPath>
</defs>
</svg>
