<svg width="189" height="33" viewBox="0 0 189 33" fill="none" xmlns="http://www.w3.org/2000/svg">
<path d="M0.98 26V0.259999H8.324L11.96 13.184C12.224 14.144 12.488 15.212 12.752 16.388C13.04 17.54 13.256 18.452 13.4 19.124L13.58 20.132H13.652C14.108 17.66 14.636 15.344 15.236 13.184L18.872 0.259999H26.324V26H21.464V11.24L21.68 5.912H21.608C21.224 7.928 20.852 9.56 20.492 10.808L16.064 26H11.06L6.74 10.808L5.624 5.912H5.552C5.696 8.072 5.768 9.848 5.768 11.24V26H0.98ZM41.5323 26C41.2923 25.688 41.1003 25.004 40.9563 23.948H40.8843C40.3563 24.74 39.6843 25.352 38.8683 25.784C38.0523 26.216 36.9123 26.432 35.4483 26.432C33.5043 26.432 31.9443 25.94 30.7683 24.956C29.5923 23.972 29.0043 22.58 29.0043 20.78C29.0043 18.908 29.6523 17.54 30.9483 16.676C32.2443 15.788 34.0683 15.176 36.4203 14.84C38.1483 14.6 39.3243 14.36 39.9483 14.12C40.5723 13.856 40.8843 13.4 40.8843 12.752C40.8843 12.08 40.6203 11.552 40.0923 11.168C39.5643 10.76 38.7963 10.556 37.7883 10.556C35.5563 10.556 34.3683 11.42 34.2243 13.148H29.8683C29.9403 11.396 30.6483 9.944 31.9923 8.792C33.3363 7.64 35.2803 7.064 37.8243 7.064C43.0083 7.064 45.6003 9.332 45.6003 13.868V23.264C45.6003 24.656 45.8163 25.508 46.2483 25.82V26H41.5323ZM36.6363 23.012C37.9803 23.012 39.0363 22.664 39.8043 21.968C40.5963 21.272 40.9923 20.444 40.9923 19.484V16.712C40.4643 17.024 39.3243 17.384 37.5723 17.792C36.1803 18.104 35.1963 18.464 34.6203 18.872C34.0443 19.256 33.7563 19.856 33.7563 20.672C33.7563 22.232 34.7163 23.012 36.6363 23.012ZM61.2049 32.048V23.912H61.1329C60.0529 25.664 58.3729 26.54 56.0929 26.54C53.8129 26.54 51.9049 25.652 50.3689 23.876C48.8569 22.076 48.1009 19.712 48.1009 16.784C48.1009 13.88 48.8209 11.528 50.2609 9.728C51.7249 7.928 53.6689 7.028 56.0929 7.028C58.3729 7.028 60.1009 7.964 61.2769 9.836H61.3849V7.532H66.1009V32.048H61.2049ZM54.1129 20.96C54.8329 21.896 55.8409 22.364 57.1369 22.364C58.4329 22.364 59.4529 21.884 60.1969 20.924C60.9409 19.94 61.3129 18.608 61.3129 16.928C61.3129 15.128 60.9649 13.676 60.2689 12.572C59.5969 11.468 58.5649 10.916 57.1729 10.916C54.4369 10.916 53.0689 12.92 53.0689 16.928C53.0689 18.68 53.4169 20.024 54.1129 20.96ZM85.6593 26H80.9433V23.84H80.8353C80.1633 24.752 79.4193 25.424 78.6033 25.856C77.8113 26.288 76.7913 26.504 75.5433 26.504C73.5273 26.504 71.9553 25.904 70.8273 24.704C69.6993 23.504 69.1353 21.884 69.1353 19.844V7.532H73.9953V19.016C73.9953 21.248 75.0153 22.364 77.0553 22.364C78.1833 22.364 79.0833 21.98 79.7553 21.212C80.4273 20.444 80.7633 19.436 80.7633 18.188V7.532H85.6593V26ZM97.5022 26.54C94.5262 26.54 92.1862 25.628 90.4822 23.804C88.7782 21.956 87.9262 19.604 87.9262 16.748C87.9262 13.988 88.7782 11.684 90.4822 9.836C92.1862 7.964 94.3702 7.028 97.0342 7.028C99.9382 7.028 102.182 8.036 103.766 10.052C105.35 12.068 106.142 14.768 106.142 18.152H92.7502C92.9422 19.616 93.4342 20.756 94.2262 21.572C95.0182 22.364 96.0982 22.76 97.4662 22.76C99.2662 22.76 100.454 22.004 101.03 20.492H105.854C105.494 22.22 104.582 23.66 103.118 24.812C101.654 25.964 99.7822 26.54 97.5022 26.54ZM97.1062 10.808C94.7302 10.808 93.3022 12.128 92.8222 14.768H101.03C100.958 13.592 100.562 12.644 99.8422 11.924C99.1222 11.18 98.2102 10.808 97.1062 10.808ZM106.977 10.772V7.532H109.533V1.772H114.321V7.532H117.489V10.772H114.321V20.564C114.321 21.788 114.933 22.4 116.157 22.4L117.597 22.364V25.964C116.853 26.012 115.833 26.036 114.537 26.036C113.121 26.036 111.933 25.7 110.973 25.028C110.013 24.332 109.533 23.192 109.533 21.608V10.772H106.977ZM118.578 10.772V7.532H121.134V1.772H125.922V7.532H129.09V10.772H125.922V20.564C125.922 21.788 126.534 22.4 127.758 22.4L129.198 22.364V25.964C128.454 26.012 127.434 26.036 126.138 26.036C124.722 26.036 123.534 25.7 122.574 25.028C121.614 24.332 121.134 23.192 121.134 21.608V10.772H118.578ZM143.415 26C143.175 25.688 142.983 25.004 142.839 23.948H142.767C142.239 24.74 141.567 25.352 140.751 25.784C139.935 26.216 138.795 26.432 137.331 26.432C135.387 26.432 133.827 25.94 132.651 24.956C131.475 23.972 130.887 22.58 130.887 20.78C130.887 18.908 131.535 17.54 132.831 16.676C134.127 15.788 135.951 15.176 138.303 14.84C140.031 14.6 141.207 14.36 141.831 14.12C142.455 13.856 142.767 13.4 142.767 12.752C142.767 12.08 142.503 11.552 141.975 11.168C141.447 10.76 140.679 10.556 139.671 10.556C137.439 10.556 136.251 11.42 136.107 13.148H131.751C131.823 11.396 132.531 9.944 133.875 8.792C135.219 7.64 137.163 7.064 139.707 7.064C144.891 7.064 147.483 9.332 147.483 13.868V23.264C147.483 24.656 147.699 25.508 148.131 25.82V26H143.415ZM138.519 23.012C139.863 23.012 140.919 22.664 141.687 21.968C142.479 21.272 142.875 20.444 142.875 19.484V16.712C142.347 17.024 141.207 17.384 139.455 17.792C138.063 18.104 137.079 18.464 136.503 18.872C135.927 19.256 135.639 19.856 135.639 20.672C135.639 22.232 136.599 23.012 138.519 23.012ZM158.732 32.3C156.236 32.3 154.232 31.796 152.72 30.788C151.232 29.78 150.356 28.364 150.092 26.54H154.952C155.432 27.908 156.668 28.592 158.66 28.592C161.396 28.592 162.764 27.308 162.764 24.74V22.724H162.656C161.384 24.164 159.776 24.884 157.832 24.884C155.648 24.884 153.74 24.08 152.108 22.472C150.5 20.864 149.696 18.728 149.696 16.064C149.696 13.328 150.44 11.144 151.928 9.512C153.416 7.856 155.336 7.028 157.688 7.028C159.92 7.028 161.624 7.844 162.8 9.476H162.872V7.532H167.588V24.596C167.588 26.996 166.856 28.868 165.392 30.212C163.904 31.604 161.684 32.3 158.732 32.3ZM158.66 20.96C160.124 20.96 161.216 20.492 161.936 19.556C162.656 18.62 163.016 17.42 163.016 15.956C163.016 14.516 162.632 13.328 161.864 12.392C161.12 11.432 160.04 10.952 158.624 10.952C157.376 10.952 156.368 11.408 155.6 12.32C154.856 13.232 154.484 14.456 154.484 15.992C154.484 17.552 154.856 18.776 155.6 19.664C156.368 20.528 157.388 20.96 158.66 20.96ZM179.416 26.54C176.44 26.54 174.1 25.628 172.396 23.804C170.692 21.956 169.84 19.604 169.84 16.748C169.84 13.988 170.692 11.684 172.396 9.836C174.1 7.964 176.284 7.028 178.948 7.028C181.852 7.028 184.096 8.036 185.68 10.052C187.264 12.068 188.056 14.768 188.056 18.152H174.664C174.856 19.616 175.348 20.756 176.14 21.572C176.932 22.364 178.012 22.76 179.38 22.76C181.18 22.76 182.368 22.004 182.944 20.492H187.768C187.408 22.22 186.496 23.66 185.032 24.812C183.568 25.964 181.696 26.54 179.416 26.54ZM179.02 10.808C176.644 10.808 175.216 12.128 174.736 14.768H182.944C182.872 13.592 182.476 12.644 181.756 11.924C181.036 11.18 180.124 10.808 179.02 10.808Z" fill="black"/>
</svg>
