<svg width="174" height="246" viewBox="0 0 174 246" fill="none" xmlns="http://www.w3.org/2000/svg">
<g clip-path="url(#clip0_373_81)">
<rect width="173.435" height="245.432" transform="translate(0.09375)" fill="#8ED0FF"/>
<path d="M3.66544 88.104V36.0007H21.0089L27.3488 58.8096L30.3365 70.6877H30.4822C31.8425 64.9551 32.8141 60.9957 33.3971 58.8096L39.8098 36.0007H57.299V88.104H45.4938V61.8702L45.7124 51.4495H45.5667C44.3522 56.6477 43.5506 59.8784 43.1619 61.1415L35.6561 88.104H25.0169L17.5839 61.2143L15.1792 51.4495H15.0334C15.1792 57.0364 15.252 60.5342 15.252 61.9431V88.104H3.66544ZM56.4234 88.104L75.1515 36.0007H88.4141L107.215 88.104H93.6609L90.6003 78.7036H72.3824L69.3946 88.104H56.4234ZM75.3701 69.4489H87.6125L83.6775 56.842L81.6371 49.482H81.4913C80.6654 52.5912 79.961 55.0445 79.378 56.842L75.3701 69.4489ZM126.843 78.8493C128.543 78.8493 130.098 78.5578 131.506 77.9748L126.77 73.3839L132.745 67.1898L137.555 71.7808C138.769 69.1574 139.377 65.951 139.377 62.1617C139.377 57.2064 138.308 53.1742 136.17 50.065C134.033 46.9558 130.923 45.4012 126.843 45.4012C122.81 45.4012 119.701 46.9558 117.515 50.065C115.329 53.1742 114.236 57.2064 114.236 62.1617C114.236 67.117 115.329 71.1492 117.515 74.2584C119.701 77.319 122.81 78.8493 126.843 78.8493ZM146.445 92.3306L139.887 86.0636C136.049 88.2498 131.676 89.3428 126.77 89.3428C118.997 89.3428 112.778 86.7923 108.115 81.6913C103.451 76.5903 101.119 70.0804 101.119 62.1617C101.119 54.243 103.451 47.7331 108.115 42.6321C112.778 37.531 118.997 34.9805 126.77 34.9805C134.543 34.9805 140.761 37.531 145.425 42.6321C150.137 47.7331 152.493 54.243 152.493 62.1617C152.493 69.4489 150.502 75.5458 146.518 80.4525L152.421 85.9907L146.445 92.3306ZM25.1626 150.051C17.9726 150.051 12.5315 148.375 8.83934 145.023C5.14717 141.671 3.30108 136.91 3.30108 130.74V97.0007H16.1994V131.178C16.1994 136.862 19.1871 139.704 25.1626 139.704C28.0289 139.704 30.215 138.926 31.7211 137.372C33.2271 135.768 33.9801 133.631 33.9801 130.959V97.0007H46.8784V130.74C46.8784 136.862 45.0323 141.623 41.3401 145.023C37.6965 148.375 32.304 150.051 25.1626 150.051ZM49.2501 149.104V97.0007H88.7466V107.64H62.1484V116.968H84.9573V127.024H62.1484V138.173H89.1838V149.104H49.2501ZM103.462 149.104V107.931H88.3042V97.0007H131.663V107.931H116.36V149.104H103.462ZM145.986 149.104V107.931H130.829V97.0007H174.188V107.931H158.885V149.104H145.986ZM0.0218548 210.104L18.7499 158.001H32.0125L50.8135 210.104H37.2593L34.1987 200.704H15.9808L12.993 210.104H0.0218548ZM18.9685 191.449H31.211L27.2759 178.842L25.2355 171.482H25.0897C24.2639 174.591 23.5594 177.045 22.9765 178.842L18.9685 191.449ZM69.5665 211.27C62.1822 211.27 56.2553 208.841 51.7858 203.983C47.122 198.882 44.7902 192.299 44.7902 184.235C44.7902 175.83 47.365 169.053 52.5146 163.903C57.0326 159.288 62.9838 156.981 70.3681 156.981C76.9266 156.981 82.1976 158.608 86.1813 161.863C90.165 165.069 92.594 169.466 93.4685 175.053H80.9345C80.4487 172.867 79.3071 171.093 77.5096 169.733C75.7606 168.324 73.5259 167.62 70.8054 167.62C66.6274 167.62 63.421 169.15 61.1863 172.211C59.0001 175.271 57.9071 179.279 57.9071 184.235C57.9071 189.093 59.0973 193.076 61.4778 196.186C63.8583 199.295 67.0403 200.849 71.024 200.849C74.2303 200.849 76.8294 199.951 78.8213 198.153C80.8617 196.356 82.0276 194.218 82.3191 191.74V191.595H72.5543V182.121H94.2701V210.104H85.234L84.5053 203.837H84.3595C81.1531 208.792 76.2222 211.27 69.5665 211.27ZM96.1869 210.104V158.001H135.683V168.64H109.085V177.968H131.894V188.024H109.085V199.173H136.121V210.104H96.1869Z" fill="#1C2730"/>
<rect x="0.0947266" y="-3.8147e-05" width="173.435" height="28.8572" fill="#1C2730"/>
<rect x="0.0947266" y="216.575" width="173.435" height="28.8572" fill="#1C2730"/>
<path d="M3.66544 274.364V222.261H21.0089L27.3488 245.07L30.3365 256.948H30.4822C31.8425 251.215 32.8141 247.256 33.3971 245.07L39.8098 222.261H57.299V274.364H45.4938V248.13L45.7124 237.71H45.5667C44.3522 242.908 43.5506 246.139 43.1619 247.402L35.6561 274.364H25.0169L17.5839 247.475L15.1792 237.71H15.0334C15.1792 243.297 15.252 246.794 15.252 248.203V274.364H3.66544ZM56.4234 274.364L75.1515 222.261H88.4141L107.215 274.364H93.6609L90.6003 264.964H72.3824L69.3946 274.364H56.4234ZM75.3701 255.709H87.6125L83.6775 243.102L81.6371 235.742H81.4913C80.6654 238.851 79.961 241.305 79.378 243.102L75.3701 255.709ZM126.843 265.11C128.543 265.11 130.098 264.818 131.506 264.235L126.77 259.644L132.745 253.45L137.555 258.041C138.769 255.418 139.377 252.211 139.377 248.422C139.377 243.467 138.308 239.434 136.17 236.325C134.033 233.216 130.923 231.661 126.843 231.661C122.81 231.661 119.701 233.216 117.515 236.325C115.329 239.434 114.236 243.467 114.236 248.422C114.236 253.377 115.329 257.409 117.515 260.519C119.701 263.579 122.81 265.11 126.843 265.11ZM146.445 278.591L139.887 272.324C136.049 274.51 131.676 275.603 126.77 275.603C118.997 275.603 112.778 273.053 108.115 267.952C103.451 262.851 101.119 256.341 101.119 248.422C101.119 240.503 103.451 233.993 108.115 228.892C112.778 223.791 118.997 221.241 126.77 221.241C134.543 221.241 140.761 223.791 145.425 228.892C150.137 233.993 152.493 240.503 152.493 248.422C152.493 255.709 150.502 261.806 146.518 266.713L152.421 272.251L146.445 278.591Z" fill="#8ED0FF"/>
<path d="M0.0218548 24.5599L18.7499 -27.5433H32.0125L50.8135 24.5599H37.2593L34.1987 15.1595H15.9808L12.993 24.5599H0.0218548ZM18.9685 5.90478H31.211L27.2759 -6.70203L25.2355 -14.0621H25.0897C24.2639 -10.9529 23.5594 -8.49953 22.9765 -6.70203L18.9685 5.90478ZM69.5665 25.7259C62.1822 25.7259 56.2553 23.2968 51.7858 18.4387C47.122 13.3377 44.7902 6.75495 44.7902 -1.30952C44.7902 -9.71406 47.365 -16.4911 52.5146 -21.6407C57.0326 -26.2559 62.9838 -28.5636 70.3681 -28.5636C76.9266 -28.5636 82.1976 -26.9361 86.1813 -23.6811C90.165 -20.4748 92.594 -16.0782 93.4685 -10.4914H80.9345C80.4487 -12.6775 79.3071 -14.4507 77.5096 -15.811C75.7606 -17.2199 73.5259 -17.9243 70.8054 -17.9243C66.6274 -17.9243 63.421 -16.394 61.1863 -13.3334C59.0001 -10.2727 57.9071 -6.2648 57.9071 -1.30952C57.9071 3.54859 59.0973 7.53225 61.4778 10.6414C63.8583 13.7506 67.0403 15.3052 71.024 15.3052C74.2303 15.3052 76.8294 14.4065 78.8213 12.609C80.8617 10.8115 82.0276 8.67391 82.3191 6.19627V6.05052H72.5543V-3.4228H94.2701V24.5599H85.234L84.5053 18.293H84.3595C81.1531 23.2483 76.2222 25.7259 69.5665 25.7259ZM96.1869 24.5599V-27.5433H135.683V-16.9041H109.085V-7.57649H131.894V2.47981H109.085V13.6292H136.121V24.5599H96.1869Z" fill="#8ED0FF"/>
</g>
<defs>
<clipPath id="clip0_373_81">
<rect width="173.435" height="245.432" fill="white" transform="translate(0.09375)"/>
</clipPath>
</defs>
</svg>
