<svg width="174" height="246" viewBox="0 0 174 246" fill="none" xmlns="http://www.w3.org/2000/svg">
<g clip-path="url(#clip0_373_87)">
<rect width="173.435" height="245.432" transform="translate(0.188477)" fill="#AF7EFF"/>
<path d="M3.47353 86.104V38.169H25.0611C30.6926 38.169 35.0503 39.6439 38.1343 42.5938C41.3523 45.5883 42.9613 49.5214 42.9613 54.3932C42.9613 59.0414 41.464 62.8181 38.4695 65.7232C35.5196 68.6284 31.6088 70.081 26.7371 70.081H15.5411V86.104H3.47353ZM15.5411 60.6951H24.3236C26.4242 60.6951 28.0556 60.1141 29.2177 58.952C30.4244 57.7899 31.0278 56.248 31.0278 54.3261C31.0278 52.4042 30.4244 50.907 29.2177 49.8343C28.0556 48.7169 26.4242 48.1582 24.3236 48.1582H15.5411V60.6951ZM43.1854 86.104V38.169H66.1138C71.0302 38.169 75.0527 39.3981 78.1814 41.8563C81.31 44.2698 82.8743 47.6443 82.8743 51.9796C82.8743 57.7899 80.1032 61.656 74.5611 63.5779V63.779C78.5836 65.1199 80.9077 68.0474 81.5335 72.5615C81.8016 74.1258 81.9804 76.0701 82.0698 78.3942C82.2039 80.6736 82.3603 82.3944 82.5391 83.5564C82.7179 84.6738 83.0531 85.3219 83.5447 85.5006V86.104H72.0135C71.6559 85.8805 71.3654 85.2325 71.142 84.1598C70.9632 83.0871 70.8067 81.5675 70.6727 79.6009C70.5386 77.6344 70.3821 76.0924 70.2034 74.975C69.5776 70.4162 66.9183 68.1368 62.2254 68.1368H55.0519V86.104H43.1854ZM55.0519 59.3543H63.9685C66.2926 59.3543 68.058 58.8403 69.2648 57.8123C70.4715 56.7843 71.0749 55.3541 71.0749 53.5216C71.0749 51.7338 70.4939 50.3036 69.3318 49.2309C68.1698 48.1136 66.4714 47.5549 64.2366 47.5549H55.0519V59.3543ZM105.93 77.5897C109.684 77.5897 112.545 76.1818 114.511 73.366C116.523 70.5056 117.528 66.7959 117.528 62.2371C117.528 57.6782 116.523 53.9686 114.511 51.1081C112.545 48.2476 109.684 46.8174 105.93 46.8174C102.22 46.8174 99.3375 48.2476 97.2815 51.1081C95.2703 53.9686 94.2646 57.6782 94.2646 62.2371C94.2646 66.7512 95.2703 70.4385 97.2815 73.299C99.3375 76.1595 102.22 77.5897 105.93 77.5897ZM123.093 80.2043C118.757 84.8973 113.014 87.2437 105.863 87.2437C98.7118 87.2437 92.9685 84.8973 88.6331 80.2043C84.3424 75.5114 82.1971 69.5223 82.1971 62.2371C82.1971 54.9518 84.3424 48.9627 88.6331 44.2698C92.9685 39.5769 98.7118 37.2304 105.863 37.2304C113.014 37.2304 118.757 39.5769 123.093 44.2698C127.428 48.9627 129.596 54.9518 129.596 62.2371C129.596 69.5223 127.428 75.5114 123.093 80.2043ZM139.974 86.104V48.2253H126.029V38.169H165.919V48.2253H151.84V86.104H139.974ZM25.2622 138.59C29.0165 138.59 31.877 137.182 33.8436 134.366C35.8548 131.506 36.8605 127.796 36.8605 123.237C36.8605 118.678 35.8548 114.969 33.8436 112.108C31.877 109.248 29.0165 107.817 25.2622 107.817C21.5525 107.817 18.6697 109.248 16.6138 112.108C14.6025 114.969 13.5969 118.678 13.5969 123.237C13.5969 127.751 14.6025 131.439 16.6138 134.299C18.6697 137.159 21.5525 138.59 25.2622 138.59ZM42.4249 141.204C38.0896 145.897 32.3463 148.244 25.1951 148.244C18.044 148.244 12.3007 145.897 7.96535 141.204C3.67466 136.511 1.52932 130.522 1.52932 123.237C1.52932 115.952 3.67466 109.963 7.96535 105.27C12.3007 100.577 18.044 98.2304 25.1951 98.2304C32.3463 98.2304 38.0896 100.577 42.4249 105.27C46.7603 109.963 48.928 115.952 48.928 123.237C48.928 130.522 46.7603 136.511 42.4249 141.204ZM59.3059 147.104V109.225H45.3612V99.169H85.2512V109.225H71.1723V147.104H59.3059ZM99.6353 147.104V129.405L83.4112 99.169H96.3503L102.518 111.572L105.669 118.879H105.803C106.921 116.198 108.016 113.762 109.088 111.572L115.189 99.169H127.726L111.502 129.405V147.104H99.6353ZM127.061 147.104V99.169H148.649C154.28 99.169 158.638 100.644 161.722 103.594C164.94 106.588 166.549 110.521 166.549 115.393C166.549 120.041 165.052 123.818 162.057 126.723C159.107 129.628 155.197 131.081 150.325 131.081H139.129V147.104H127.061ZM139.129 121.695H147.911C150.012 121.695 151.643 121.114 152.805 119.952C154.012 118.79 154.616 117.248 154.616 115.326C154.616 113.404 154.012 111.907 152.805 110.834C151.643 109.717 150.012 109.158 147.911 109.158H139.129V121.695ZM0.121435 208.104L17.3512 160.169H29.5529L46.8497 208.104H34.3799L31.5641 199.456H14.8036L12.0549 208.104H0.121435ZM17.5524 190.941H28.8154L25.1951 179.343L23.318 172.572H23.1839C22.4241 175.432 21.776 177.689 21.2397 179.343L17.5524 190.941ZM64.1025 209.177C57.309 209.177 51.8562 206.942 47.7443 202.472C43.4536 197.78 41.3083 191.723 41.3083 184.304C41.3083 176.572 43.6771 170.337 48.4147 165.599C52.5713 161.353 58.0464 159.23 64.84 159.23C70.8738 159.23 75.7232 160.728 79.3881 163.722C83.0531 166.672 85.2878 170.717 86.0923 175.857H74.5611C74.1142 173.846 73.0638 172.214 71.4101 170.963C69.8011 169.667 67.7452 169.019 65.2423 169.019C61.3985 169.019 58.4487 170.426 56.3927 173.242C54.3815 176.058 53.3758 179.745 53.3758 184.304C53.3758 188.774 54.4708 192.439 56.6609 195.299C58.8509 198.159 61.7784 199.59 65.4434 199.59C68.3932 199.59 70.7844 198.763 72.6169 197.109C74.4941 195.455 75.5667 193.489 75.8349 191.209V191.075H66.8513V182.36H86.8298V208.104H78.5166L77.8462 202.338H77.7121C74.7622 206.897 70.2257 209.177 64.1025 209.177ZM88.5933 208.104V160.169H124.93V169.957H100.46V178.538H121.444V187.79H100.46V198.048H125.332V208.104H88.5933Z" fill="#FAF8FF"/>
<rect x="0.188477" y="5.34058e-05" width="173.435" height="28.8572" fill="#FAF8FF"/>
<rect x="0.188477" y="216.575" width="173.435" height="28.8572" fill="#FAF8FF"/>
<path d="M3.47353 272.364V224.429H25.0611C30.6926 224.429 35.0503 225.904 38.1343 228.854C41.3523 231.849 42.9613 235.782 42.9613 240.653C42.9613 245.302 41.464 249.078 38.4695 251.983C35.5196 254.889 31.6088 256.341 26.7371 256.341H15.5411V272.364H3.47353ZM15.5411 246.955H24.3236C26.4242 246.955 28.0556 246.374 29.2177 245.212C30.4244 244.05 31.0278 242.508 31.0278 240.586C31.0278 238.664 30.4244 237.167 29.2177 236.095C28.0556 234.977 26.4242 234.418 24.3236 234.418H15.5411V246.955ZM43.1854 272.364V224.429H66.1138C71.0302 224.429 75.0527 225.658 78.1814 228.117C81.31 230.53 82.8743 233.904 82.8743 238.24C82.8743 244.05 80.1032 247.916 74.5611 249.838V250.039C78.5836 251.38 80.9077 254.308 81.5335 258.822C81.8016 260.386 81.9804 262.33 82.0698 264.654C82.2039 266.934 82.3603 268.655 82.5391 269.817C82.7179 270.934 83.0531 271.582 83.5447 271.761V272.364H72.0135C71.6559 272.141 71.3654 271.493 71.142 270.42C70.9632 269.347 70.8067 267.828 70.6727 265.861C70.5386 263.895 70.3821 262.353 70.2034 261.235C69.5776 256.676 66.9183 254.397 62.2254 254.397H55.0519V272.364H43.1854ZM55.0519 245.614H63.9685C66.2926 245.614 68.058 245.101 69.2648 244.073C70.4715 243.045 71.0749 241.614 71.0749 239.782C71.0749 237.994 70.4939 236.564 69.3318 235.491C68.1698 234.374 66.4714 233.815 64.2366 233.815H55.0519V245.614ZM105.93 263.85C109.684 263.85 112.545 262.442 114.511 259.626C116.523 256.766 117.528 253.056 117.528 248.497C117.528 243.938 116.523 240.229 114.511 237.368C112.545 234.508 109.684 233.078 105.93 233.078C102.22 233.078 99.3375 234.508 97.2815 237.368C95.2703 240.229 94.2646 243.938 94.2646 248.497C94.2646 253.011 95.2703 256.699 97.2815 259.559C99.3375 262.42 102.22 263.85 105.93 263.85ZM123.093 266.465C118.757 271.158 113.014 273.504 105.863 273.504C98.7118 273.504 92.9685 271.158 88.6331 266.465C84.3424 261.772 82.1971 255.783 82.1971 248.497C82.1971 241.212 84.3424 235.223 88.6331 230.53C92.9685 225.837 98.7118 223.491 105.863 223.491C113.014 223.491 118.757 225.837 123.093 230.53C127.428 235.223 129.596 241.212 129.596 248.497C129.596 255.783 127.428 261.772 123.093 266.465ZM139.974 272.364V234.486H126.029V224.429H165.919V234.486H151.84V272.364H139.974Z" fill="#AF7EFF"/>
<path d="M0.121435 22.5599L17.3512 -25.3751H29.5529L46.8497 22.5599H34.3799L31.5641 13.9115H14.8036L12.0549 22.5599H0.121435ZM17.5524 5.39719H28.8154L25.1951 -6.20108L23.318 -12.9723H23.1839C22.4241 -10.1119 21.776 -7.85478 21.2397 -6.20108L17.5524 5.39719ZM64.1025 23.6326C57.309 23.6326 51.8562 21.3979 47.7443 16.9284C43.4536 12.2355 41.3083 6.17935 41.3083 -1.23997C41.3083 -8.97214 43.6771 -15.207 48.4147 -19.9447C52.5713 -24.1907 58.0464 -26.3137 64.84 -26.3137C70.8738 -26.3137 75.7232 -24.8164 79.3881 -21.8219C83.0531 -18.872 85.2878 -14.8271 86.0923 -9.68726H74.5611C74.1142 -11.6985 73.0638 -13.3299 71.4101 -14.5813C69.8011 -15.8775 67.7452 -16.5255 65.2423 -16.5255C61.3985 -16.5255 58.4487 -15.1177 56.3927 -12.3019C54.3815 -9.48613 53.3758 -5.79882 53.3758 -1.23997C53.3758 3.2295 54.4708 6.89446 56.6609 9.75492C58.8509 12.6154 61.7784 14.0456 65.4434 14.0456C68.3932 14.0456 70.7844 13.2188 72.6169 11.5651C74.4941 9.91135 75.5667 7.94479 75.8349 5.66536V5.53128H66.8513V-3.18418H86.8298V22.5599H78.5166L77.8462 16.7943H77.7121C74.7622 21.3532 70.2257 23.6326 64.1025 23.6326ZM88.5933 22.5599V-25.3751H124.93V-15.587H100.46V-7.00558H121.444V2.24622H100.46V12.5036H125.332V22.5599H88.5933Z" fill="#AF7EFF"/>
</g>
<defs>
<clipPath id="clip0_373_87">
<rect width="173.435" height="245.432" fill="white" transform="translate(0.188477)"/>
</clipPath>
</defs>
</svg>
