<svg width="196" height="33" viewBox="0 0 196 33" fill="none" xmlns="http://www.w3.org/2000/svg">
<path d="M0.98 26V0.259999H12.284C15.212 0.259999 17.456 1.064 19.016 2.672C20.552 4.256 21.32 6.212 21.32 8.54C21.32 10.988 20.552 12.956 19.016 14.444C17.48 15.932 15.38 16.676 12.716 16.676H6.38V26H0.98ZM6.38 4.796V12.428H11.78C13.124 12.428 14.156 12.092 14.876 11.42C15.596 10.724 15.956 9.776 15.956 8.576C15.956 7.376 15.596 6.452 14.876 5.804C14.156 5.132 13.148 4.796 11.852 4.796H6.38ZM28.2219 7.532V10.484H28.3299C28.9059 9.404 29.5419 8.612 30.2379 8.108C30.9339 7.58 31.8099 7.316 32.8659 7.316C33.3699 7.316 33.7539 7.364 34.0179 7.46V11.744H33.9099C32.2539 11.576 30.9219 11.936 29.9139 12.824C28.9059 13.712 28.4019 15.104 28.4019 17V26H23.5059V7.532H28.2219ZM51.2956 23.768C49.4956 25.616 47.1796 26.54 44.3476 26.54C41.5156 26.54 39.1996 25.616 37.3996 23.768C35.5996 21.896 34.6996 19.568 34.6996 16.784C34.6996 14 35.5996 11.684 37.3996 9.836C39.1996 7.964 41.5156 7.028 44.3476 7.028C47.1796 7.028 49.4956 7.964 51.2956 9.836C53.0956 11.684 53.9956 14 53.9956 16.784C53.9956 19.568 53.0956 21.896 51.2956 23.768ZM44.3476 22.796C45.8116 22.796 46.9516 22.256 47.7676 21.176C48.6076 20.072 49.0276 18.608 49.0276 16.784C49.0276 14.96 48.6076 13.496 47.7676 12.392C46.9516 11.288 45.8116 10.736 44.3476 10.736C42.8596 10.736 41.7076 11.288 40.8916 12.392C40.0756 13.472 39.6676 14.936 39.6676 16.784C39.6676 18.608 40.0756 20.072 40.8916 21.176C41.7076 22.256 42.8596 22.796 44.3476 22.796ZM54.8399 10.772V7.532H57.3959V1.772H62.1839V7.532H65.3519V10.772H62.1839V20.564C62.1839 21.788 62.7959 22.4 64.0199 22.4L65.4599 22.364V25.964C64.7159 26.012 63.6959 26.036 62.3999 26.036C60.9839 26.036 59.7959 25.7 58.8359 25.028C57.8759 24.332 57.3959 23.192 57.3959 21.608V10.772H54.8399ZM83.3933 23.768C81.5933 25.616 79.2773 26.54 76.4453 26.54C73.6133 26.54 71.2973 25.616 69.4973 23.768C67.6973 21.896 66.7973 19.568 66.7973 16.784C66.7973 14 67.6973 11.684 69.4973 9.836C71.2973 7.964 73.6133 7.028 76.4453 7.028C79.2773 7.028 81.5933 7.964 83.3933 9.836C85.1933 11.684 86.0933 14 86.0933 16.784C86.0933 19.568 85.1933 21.896 83.3933 23.768ZM76.4453 22.796C77.9093 22.796 79.0493 22.256 79.8653 21.176C80.7053 20.072 81.1253 18.608 81.1253 16.784C81.1253 14.96 80.7053 13.496 79.8653 12.392C79.0493 11.288 77.9093 10.736 76.4453 10.736C74.9573 10.736 73.8053 11.288 72.9893 12.392C72.1733 13.472 71.7653 14.936 71.7653 16.784C71.7653 18.608 72.1733 20.072 72.9893 21.176C73.8053 22.256 74.9573 22.796 76.4453 22.796ZM86.9376 10.772V7.532H89.4936V1.772H94.2816V7.532H97.4496V10.772H94.2816V20.564C94.2816 21.788 94.8936 22.4 96.1176 22.4L97.5576 22.364V25.964C96.8136 26.012 95.7936 26.036 94.4976 26.036C93.0816 26.036 91.8936 25.7 90.9336 25.028C89.9736 24.332 89.4936 23.192 89.4936 21.608V10.772H86.9376ZM100.718 32.048V28.196H102.446C104.27 28.196 105.182 27.356 105.182 25.676C105.182 24.86 104.714 23.192 103.778 20.672L98.8103 7.532H103.958L106.694 15.848L107.882 19.88H107.954C108.29 18.32 108.65 16.976 109.034 15.848L111.626 7.532H116.558L110.114 26.468C109.394 28.58 108.578 30.032 107.666 30.824C106.778 31.64 105.422 32.048 103.598 32.048H100.718ZM118.217 32.048V7.532H122.933V9.836H123.041C124.409 7.964 126.221 7.028 128.477 7.028C130.901 7.028 132.845 7.928 134.309 9.728C135.773 11.528 136.505 13.88 136.505 16.784C136.505 19.76 135.773 22.136 134.309 23.912C132.845 25.664 130.913 26.54 128.513 26.54C126.113 26.54 124.337 25.664 123.185 23.912H123.113V32.048H118.217ZM127.469 22.472C128.717 22.472 129.701 21.98 130.421 20.996C131.165 20.012 131.537 18.656 131.537 16.928C131.537 15.08 131.189 13.628 130.493 12.572C129.797 11.516 128.729 10.988 127.289 10.988C125.825 10.988 124.745 11.54 124.049 12.644C123.353 13.724 123.005 15.152 123.005 16.928C123.005 18.632 123.389 19.988 124.157 20.996C124.925 21.98 126.029 22.472 127.469 22.472ZM150.411 26C150.171 25.688 149.979 25.004 149.835 23.948H149.763C149.235 24.74 148.563 25.352 147.747 25.784C146.931 26.216 145.791 26.432 144.327 26.432C142.383 26.432 140.823 25.94 139.647 24.956C138.471 23.972 137.883 22.58 137.883 20.78C137.883 18.908 138.531 17.54 139.827 16.676C141.123 15.788 142.947 15.176 145.299 14.84C147.027 14.6 148.203 14.36 148.827 14.12C149.451 13.856 149.763 13.4 149.763 12.752C149.763 12.08 149.499 11.552 148.971 11.168C148.443 10.76 147.675 10.556 146.667 10.556C144.435 10.556 143.247 11.42 143.103 13.148H138.747C138.819 11.396 139.527 9.944 140.871 8.792C142.215 7.64 144.159 7.064 146.703 7.064C151.887 7.064 154.479 9.332 154.479 13.868V23.264C154.479 24.656 154.695 25.508 155.127 25.82V26H150.411ZM145.515 23.012C146.859 23.012 147.915 22.664 148.683 21.968C149.475 21.272 149.871 20.444 149.871 19.484V16.712C149.343 17.024 148.203 17.384 146.451 17.792C145.059 18.104 144.075 18.464 143.499 18.872C142.923 19.256 142.635 19.856 142.635 20.672C142.635 22.232 143.595 23.012 145.515 23.012ZM165.728 32.3C163.232 32.3 161.228 31.796 159.716 30.788C158.228 29.78 157.352 28.364 157.088 26.54H161.948C162.428 27.908 163.664 28.592 165.656 28.592C168.392 28.592 169.76 27.308 169.76 24.74V22.724H169.652C168.38 24.164 166.772 24.884 164.828 24.884C162.644 24.884 160.736 24.08 159.104 22.472C157.496 20.864 156.692 18.728 156.692 16.064C156.692 13.328 157.436 11.144 158.924 9.512C160.412 7.856 162.332 7.028 164.684 7.028C166.916 7.028 168.62 7.844 169.796 9.476H169.868V7.532H174.584V24.596C174.584 26.996 173.852 28.868 172.388 30.212C170.9 31.604 168.68 32.3 165.728 32.3ZM165.656 20.96C167.12 20.96 168.212 20.492 168.932 19.556C169.652 18.62 170.012 17.42 170.012 15.956C170.012 14.516 169.628 13.328 168.86 12.392C168.116 11.432 167.036 10.952 165.62 10.952C164.372 10.952 163.364 11.408 162.596 12.32C161.852 13.232 161.48 14.456 161.48 15.992C161.48 17.552 161.852 18.776 162.596 19.664C163.364 20.528 164.384 20.96 165.656 20.96ZM186.412 26.54C183.436 26.54 181.096 25.628 179.392 23.804C177.688 21.956 176.836 19.604 176.836 16.748C176.836 13.988 177.688 11.684 179.392 9.836C181.096 7.964 183.28 7.028 185.944 7.028C188.848 7.028 191.092 8.036 192.676 10.052C194.26 12.068 195.052 14.768 195.052 18.152H181.66C181.852 19.616 182.344 20.756 183.136 21.572C183.928 22.364 185.008 22.76 186.376 22.76C188.176 22.76 189.364 22.004 189.94 20.492H194.764C194.404 22.22 193.492 23.66 192.028 24.812C190.564 25.964 188.692 26.54 186.412 26.54ZM186.016 10.808C183.64 10.808 182.212 12.128 181.732 14.768H189.94C189.868 13.592 189.472 12.644 188.752 11.924C188.032 11.18 187.12 10.808 186.016 10.808Z" fill="black"/>
</svg>
