<svg width="175" height="27" viewBox="0 0 175 27" fill="none" xmlns="http://www.w3.org/2000/svg">
<path d="M0.98 26V0.259999H12.284C15.212 0.259999 17.456 1.064 19.016 2.672C20.552 4.256 21.32 6.212 21.32 8.54C21.32 10.988 20.552 12.956 19.016 14.444C17.48 15.932 15.38 16.676 12.716 16.676H6.38V26H0.98ZM6.38 4.796V12.428H11.78C13.124 12.428 14.156 12.092 14.876 11.42C15.596 10.724 15.956 9.776 15.956 8.576C15.956 7.376 15.596 6.452 14.876 5.804C14.156 5.132 13.148 4.796 11.852 4.796H6.38ZM39.8859 26H35.1699V23.84H35.0619C34.3899 24.752 33.6459 25.424 32.8299 25.856C32.0379 26.288 31.0179 26.504 29.7699 26.504C27.7539 26.504 26.1819 25.904 25.0539 24.704C23.9259 23.504 23.3619 21.884 23.3619 19.844V7.532H28.2219V19.016C28.2219 21.248 29.2419 22.364 31.2819 22.364C32.4099 22.364 33.3099 21.98 33.9819 21.212C34.6539 20.444 34.9899 19.436 34.9899 18.188V7.532H39.8859V26ZM53.3488 26.54C50.8528 26.54 49.0168 25.592 47.8408 23.696H47.7688V26H43.0528V0.259999H47.9488V9.764H48.0568C49.2328 7.94 50.9488 7.028 53.2048 7.028C55.5328 7.028 57.4408 7.94 58.9288 9.764C60.4168 11.564 61.1608 13.904 61.1608 16.784C61.1608 19.76 60.4408 22.136 59.0008 23.912C57.5608 25.664 55.6768 26.54 53.3488 26.54ZM52.2688 22.436C53.5168 22.436 54.4768 21.944 55.1488 20.96C55.8448 19.976 56.1928 18.584 56.1928 16.784C56.1928 15.008 55.8328 13.604 55.1128 12.572C54.4168 11.516 53.4088 10.988 52.0888 10.988C49.2568 10.988 47.8408 12.956 47.8408 16.892C47.8408 18.596 48.2368 19.952 49.0288 20.96C49.8208 21.944 50.9008 22.436 52.2688 22.436ZM63.5154 26V0.259999H68.4114V26H63.5154ZM71.6348 26V7.532H76.5308V26H71.6348ZM71.6348 4.652V0.259999H76.5308V4.652H71.6348ZM88.2536 26.54C85.3976 26.54 83.1056 25.616 81.3776 23.768C79.6496 21.92 78.7856 19.592 78.7856 16.784C78.7856 13.976 79.6256 11.648 81.3056 9.8C83.0096 7.952 85.2416 7.028 88.0016 7.028C90.3296 7.028 92.2256 7.64 93.6896 8.864C95.1536 10.088 96.0536 11.732 96.3896 13.796H91.6016C91.4336 12.956 91.0496 12.272 90.4496 11.744C89.8496 11.216 89.1056 10.952 88.2176 10.952C86.7776 10.952 85.6736 11.468 84.9056 12.5C84.1376 13.532 83.7536 14.96 83.7536 16.784C83.7536 18.584 84.1256 20.012 84.8696 21.068C85.6136 22.1 86.7056 22.616 88.1456 22.616C90.2816 22.616 91.5176 21.572 91.8536 19.484H96.5696C96.4016 21.524 95.5736 23.216 94.0856 24.56C92.5976 25.88 90.6536 26.54 88.2536 26.54ZM110.685 26C110.445 25.688 110.253 25.004 110.109 23.948H110.037C109.509 24.74 108.837 25.352 108.021 25.784C107.205 26.216 106.065 26.432 104.601 26.432C102.657 26.432 101.097 25.94 99.9207 24.956C98.7447 23.972 98.1567 22.58 98.1567 20.78C98.1567 18.908 98.8047 17.54 100.101 16.676C101.397 15.788 103.221 15.176 105.573 14.84C107.301 14.6 108.477 14.36 109.101 14.12C109.725 13.856 110.037 13.4 110.037 12.752C110.037 12.08 109.773 11.552 109.245 11.168C108.717 10.76 107.949 10.556 106.941 10.556C104.709 10.556 103.521 11.42 103.377 13.148H99.0207C99.0927 11.396 99.8007 9.944 101.145 8.792C102.489 7.64 104.433 7.064 106.977 7.064C112.161 7.064 114.753 9.332 114.753 13.868V23.264C114.753 24.656 114.969 25.508 115.401 25.82V26H110.685ZM105.789 23.012C107.133 23.012 108.189 22.664 108.957 21.968C109.749 21.272 110.145 20.444 110.145 19.484V16.712C109.617 17.024 108.477 17.384 106.725 17.792C105.333 18.104 104.349 18.464 103.773 18.872C103.197 19.256 102.909 19.856 102.909 20.672C102.909 22.232 103.869 23.012 105.789 23.012ZM116.434 10.772V7.532H118.99V1.772H123.778V7.532H126.946V10.772H123.778V20.564C123.778 21.788 124.39 22.4 125.614 22.4L127.054 22.364V25.964C126.31 26.012 125.29 26.036 123.994 26.036C122.578 26.036 121.39 25.7 120.43 25.028C119.47 24.332 118.99 23.192 118.99 21.608V10.772H116.434ZM129.467 26V7.532H134.363V26H129.467ZM129.467 4.652V0.259999H134.363V4.652H129.467ZM153.214 23.768C151.414 25.616 149.098 26.54 146.266 26.54C143.434 26.54 141.118 25.616 139.318 23.768C137.518 21.896 136.618 19.568 136.618 16.784C136.618 14 137.518 11.684 139.318 9.836C141.118 7.964 143.434 7.028 146.266 7.028C149.098 7.028 151.414 7.964 153.214 9.836C155.014 11.684 155.914 14 155.914 16.784C155.914 19.568 155.014 21.896 153.214 23.768ZM146.266 22.796C147.73 22.796 148.87 22.256 149.686 21.176C150.526 20.072 150.946 18.608 150.946 16.784C150.946 14.96 150.526 13.496 149.686 12.392C148.87 11.288 147.73 10.736 146.266 10.736C144.778 10.736 143.626 11.288 142.81 12.392C141.994 13.472 141.586 14.936 141.586 16.784C141.586 18.608 141.994 20.072 142.81 21.176C143.626 22.256 144.778 22.796 146.266 22.796ZM162.977 7.532V10.052H163.085C164.357 8.036 166.181 7.028 168.557 7.028C170.453 7.028 171.989 7.676 173.165 8.972C174.341 10.244 174.929 11.9 174.929 13.94V26H170.033V14.66C170.033 13.652 169.745 12.836 169.169 12.212C168.617 11.588 167.837 11.276 166.829 11.276C165.749 11.276 164.849 11.672 164.129 12.464C163.433 13.256 163.085 14.276 163.085 15.524V26H158.189V7.532H162.977Z" fill="black"/>
</svg>
