<svg width="174" height="246" viewBox="0 0 174 246" fill="none" xmlns="http://www.w3.org/2000/svg">
<g clip-path="url(#clip0_373_111)">
<rect width="173.435" height="245.432" transform="translate(0.56543)" fill="#614134"/>
<path d="M4.49322 90.104V32.7904H30.3044C37.0377 32.7904 42.2481 34.5539 45.9354 38.0809C49.783 41.6613 51.7068 46.364 51.7068 52.1889C51.7068 57.7465 49.9166 62.2622 46.3362 65.7357C42.8092 69.2093 38.1332 70.946 32.3084 70.946H18.9218V90.104H4.49322ZM18.9218 59.7238H29.4226C31.9343 59.7238 33.8848 59.0291 35.2742 57.6397C36.7171 56.2502 37.4385 54.4066 37.4385 52.1087C37.4385 49.8108 36.7171 48.0206 35.2742 46.7381C33.8848 45.4021 31.9343 44.7341 29.4226 44.7341H18.9218V59.7238ZM76.0131 91.1461C68.1041 91.1461 62.1189 89.3024 58.0575 85.6151C53.9961 81.9278 51.9654 76.6908 51.9654 69.904V32.7904H66.1536V70.3849C66.1536 76.6373 69.4401 79.7635 76.0131 79.7635C79.166 79.7635 81.5708 78.9085 83.2274 77.1984C84.884 75.4349 85.7123 73.0836 85.7123 70.1445V32.7904H99.9005V69.904C99.9005 76.6373 97.8698 81.8744 93.8084 85.6151C89.8005 89.3024 83.8687 91.1461 76.0131 91.1461ZM102.509 90.104V32.7904H130.164C135.882 32.7904 140.344 34.0997 143.551 36.7182C146.864 39.4436 148.521 43.1042 148.521 47.7C148.521 53.1508 145.849 56.8915 140.505 58.9222V59.1627C143.658 60.1246 146.143 61.8614 147.959 64.373C149.83 66.8847 150.765 69.8238 150.765 73.1905C150.765 78.7482 148.815 83.0233 144.913 86.0159C141.44 88.7413 136.737 90.104 130.805 90.104H102.509ZM116.537 78.7215H129.202C131.5 78.7215 133.317 78.1069 134.653 76.8778C136.043 75.6487 136.737 74.0188 136.737 71.9881C136.737 69.7971 136.016 68.1138 134.573 66.9381C133.13 65.709 131.286 65.0944 129.042 65.0944H116.537V78.7215ZM116.537 55.4754H128.08C130.164 55.4754 131.821 54.9677 133.05 53.9524C134.332 52.937 134.974 51.5209 134.974 49.7039C134.974 47.9404 134.359 46.551 133.13 45.5357C131.901 44.5203 130.244 44.0126 128.16 44.0126H116.537V55.4754ZM4.49322 151.104V93.7904H18.6813V139.08H44.4124V151.104H4.49322ZM45.0881 151.104V93.7904H59.2762V151.104H45.0881ZM88.3232 152.387C79.9866 152.387 73.1731 149.608 67.8826 144.05C62.6456 138.439 60.0271 131.305 60.0271 122.648C60.0271 113.99 62.6189 106.83 67.8025 101.165C72.9861 95.5005 79.7996 92.6682 88.243 92.6682C94.7626 92.6682 100.213 94.3515 104.595 97.7182C109.565 101.459 112.424 106.723 113.172 113.509H98.9843C98.6102 110.891 97.4613 108.727 95.5375 107.017C93.6136 105.307 91.1554 104.452 88.1628 104.452C83.6739 104.452 80.2538 106.135 77.9025 109.502C75.6046 112.815 74.4557 117.197 74.4557 122.648C74.4557 127.992 75.7115 132.347 78.2231 135.714C80.7348 139.08 84.0747 140.764 88.243 140.764C91.3425 140.764 93.8808 139.882 95.8581 138.118C97.8888 136.355 99.0644 134.057 99.3851 131.225H113.573C113.146 136.996 110.848 141.886 106.68 145.894C102.191 150.222 96.0718 152.387 88.3232 152.387ZM107.782 151.104L128.383 93.7904H142.972L163.653 151.104H148.744L145.377 140.764H125.337L122.051 151.104H107.782ZM128.624 130.583H142.09L137.762 116.716L135.517 108.62H135.357C134.449 112.04 133.674 114.739 133.032 116.716L128.624 130.583ZM18.6012 213.104V167.814H1.92813V155.79H49.6227V167.814H32.7893V213.104H18.6012ZM50.1763 213.104V155.79H64.3644V213.104H50.1763ZM93.4915 202.924C97.9804 202.924 101.401 201.241 103.752 197.874C106.157 194.454 107.359 190.018 107.359 184.567C107.359 179.117 106.157 174.681 103.752 171.261C101.401 167.841 97.9804 166.131 93.4915 166.131C89.0561 166.131 85.6092 167.841 83.151 171.261C80.7463 174.681 79.5439 179.117 79.5439 184.567C79.5439 189.965 80.7463 194.374 83.151 197.794C85.6092 201.214 89.0561 202.924 93.4915 202.924ZM114.012 206.05C108.829 211.661 101.962 214.467 93.4114 214.467C84.8611 214.467 77.9941 211.661 72.8105 206.05C67.6804 200.439 65.1153 193.278 65.1153 184.567C65.1153 175.857 67.6804 168.696 72.8105 163.085C77.9941 157.474 84.8611 154.668 93.4114 154.668C101.962 154.668 108.829 157.474 114.012 163.085C119.196 168.696 121.788 175.857 121.788 184.567C121.788 193.278 119.196 200.439 114.012 206.05ZM122.515 213.104V155.79H136.783L153.777 184.567L157.704 191.862H157.865C157.758 187.266 157.704 184.3 157.704 182.964V155.79H171.572V213.104H157.304L140.47 184.728L136.382 177.033H136.222C136.329 181.949 136.382 185.075 136.382 186.411V213.104H122.515Z" fill="#FFF8F8"/>
<rect x="0.56543" y="-7.62939e-06" width="173.435" height="28.8572" fill="#FFF8F8"/>
<rect x="0.56543" y="216.575" width="173.435" height="28.8572" fill="#FFF8F8"/>
<path d="M4.49322 276.364V219.051H30.3044C37.0377 219.051 42.2481 220.814 45.9354 224.341C49.783 227.922 51.7068 232.624 51.7068 238.449C51.7068 244.007 49.9166 248.522 46.3362 251.996C42.8092 255.47 38.1332 257.206 32.3084 257.206H18.9218V276.364H4.49322ZM18.9218 245.984H29.4226C31.9343 245.984 33.8848 245.289 35.2742 243.9C36.7171 242.51 37.4385 240.667 37.4385 238.369C37.4385 236.071 36.7171 234.281 35.2742 232.998C33.8848 231.662 31.9343 230.994 29.4226 230.994H18.9218V245.984ZM76.0131 277.406C68.1041 277.406 62.1189 275.563 58.0575 271.875C53.9961 268.188 51.9654 262.951 51.9654 256.164V219.051H66.1536V256.645C66.1536 262.898 69.4401 266.024 76.0131 266.024C79.166 266.024 81.5708 265.169 83.2274 263.459C84.884 261.695 85.7123 259.344 85.7123 256.405V219.051H99.9005V256.164C99.9005 262.898 97.8698 268.135 93.8084 271.875C89.8005 275.563 83.8687 277.406 76.0131 277.406ZM102.509 276.364V219.051H130.164C135.882 219.051 140.344 220.36 143.551 222.978C146.864 225.704 148.521 229.364 148.521 233.96C148.521 239.411 145.849 243.152 140.505 245.182V245.423C143.658 246.385 146.143 248.122 147.959 250.633C149.83 253.145 150.765 256.084 150.765 259.451C150.765 265.008 148.815 269.284 144.913 272.276C141.44 275.002 136.737 276.364 130.805 276.364H102.509ZM116.537 264.982H129.202C131.5 264.982 133.317 264.367 134.653 263.138C136.043 261.909 136.737 260.279 136.737 258.248C136.737 256.057 136.016 254.374 134.573 253.198C133.13 251.969 131.286 251.355 129.042 251.355H116.537V264.982ZM116.537 241.736H128.08C130.164 241.736 131.821 241.228 133.05 240.213C134.332 239.197 134.974 237.781 134.974 235.964C134.974 234.201 134.359 232.811 133.13 231.796C131.901 230.781 130.244 230.273 128.16 230.273H116.537V241.736Z" fill="#614134"/>
<path d="M18.6012 26.5599V-18.7298H1.92813V-30.7537H49.6227V-18.7298H32.7893V26.5599H18.6012ZM50.1763 26.5599V-30.7537H64.3644V26.5599H50.1763ZM93.4915 16.3798C97.9804 16.3798 101.401 14.6964 103.752 11.3298C106.157 7.90964 107.359 3.47418 107.359 -1.97663C107.359 -7.42743 106.157 -11.8629 103.752 -15.283C101.401 -18.7031 97.9804 -20.4132 93.4915 -20.4132C89.0561 -20.4132 85.6092 -18.7031 83.151 -15.283C80.7463 -11.8629 79.5439 -7.42743 79.5439 -1.97663C79.5439 3.42074 80.7463 7.82948 83.151 11.2496C85.6092 14.6697 89.0561 16.3798 93.4915 16.3798ZM114.012 19.506C108.829 25.1171 101.962 27.9226 93.4114 27.9226C84.8611 27.9226 77.9941 25.1171 72.8105 19.506C67.6804 13.8948 65.1153 6.73397 65.1153 -1.97663C65.1153 -10.6872 67.6804 -17.8481 72.8105 -23.4592C77.9941 -29.0703 84.8611 -31.8759 93.4114 -31.8759C101.962 -31.8759 108.829 -29.0703 114.012 -23.4592C119.196 -17.8481 121.788 -10.6872 121.788 -1.97663C121.788 6.73397 119.196 13.8948 114.012 19.506ZM122.515 26.5599V-30.7537H136.783L153.777 -1.97663L157.704 5.31783H157.865C157.758 0.722056 157.704 -2.24382 157.704 -3.57981V-30.7537H171.572V26.5599H157.304L140.47 -1.81631L136.382 -9.51156H136.222C136.329 -4.59515 136.382 -1.46895 136.382 -0.132972V26.5599H122.515Z" fill="#614134"/>
</g>
<defs>
<clipPath id="clip0_373_111">
<rect width="173.435" height="245.432" fill="white" transform="translate(0.56543)"/>
</clipPath>
</defs>
</svg>
