<svg width="174" height="246" viewBox="0 0 174 246" fill="none" xmlns="http://www.w3.org/2000/svg">
<g clip-path="url(#clip0_373_105)">
<rect width="173.435" height="245.432" transform="translate(0.470703)" fill="#FFBDE9"/>
<path d="M19.2279 90.104L0.310385 32.7904H15.0596L24.0374 62.85L26.6827 72.95H26.843C27.8049 69.0489 28.6866 65.6823 29.4882 62.85L38.3859 32.7904H52.7343L33.897 90.104H19.2279ZM51.8018 90.104V32.7904H95.248V44.4936H65.99V54.7539H91.0797V65.8159H65.99V78.0802H95.7289V90.104H51.8018ZM97.3265 90.104V32.7904H124.741C130.619 32.7904 135.429 34.26 139.169 37.1991C142.91 40.0849 144.781 44.1195 144.781 49.3031C144.781 56.2502 141.467 60.8727 134.841 63.1706V63.4111C139.65 65.0143 142.429 68.5146 143.177 73.9119C143.498 75.7823 143.712 78.1069 143.819 80.8857C143.979 83.6111 144.166 85.6686 144.38 87.058C144.593 88.394 144.994 89.1688 145.582 89.3826V90.104H131.795C131.367 89.8368 131.02 89.062 130.753 87.7794C130.539 86.4969 130.352 84.6799 130.192 82.3286C130.031 79.9773 129.844 78.1336 129.63 76.7976C128.882 71.3468 125.703 68.6214 120.092 68.6214H111.515V90.104H97.3265ZM111.515 58.1206H122.176C124.955 58.1206 127.065 57.5061 128.508 56.277C129.951 55.0479 130.673 53.3378 130.673 51.1468C130.673 49.0092 129.978 47.2992 128.588 46.0166C127.199 44.6806 125.168 44.0126 122.496 44.0126H111.515V58.1206ZM146.376 90.104V32.7904H160.564V90.104H146.376ZM4.39849 151.104V93.7904H47.043V105.734H18.5866V117.357H42.3938V128.82H18.5866V151.104H4.39849ZM47.8897 151.104V93.7904H62.0778V151.104H47.8897ZM91.1248 152.387C82.7883 152.387 75.9748 149.608 70.6843 144.05C65.4472 138.439 62.8287 131.305 62.8287 122.648C62.8287 113.99 65.4205 106.83 70.6041 101.165C75.7877 95.5005 82.6012 92.6682 91.0446 92.6682C97.5642 92.6682 103.015 94.3515 107.397 97.7182C112.367 101.459 115.226 106.723 115.974 113.509H101.786C101.412 110.891 100.263 108.727 98.3391 107.017C96.4153 105.307 93.9571 104.452 90.9645 104.452C86.4756 104.452 83.0555 106.135 80.7041 109.502C78.4062 112.815 77.2573 117.197 77.2573 122.648C77.2573 127.992 78.5131 132.347 81.0248 135.714C83.5364 139.08 86.8764 140.764 91.0446 140.764C94.1441 140.764 96.6825 139.882 98.6597 138.118C100.69 136.355 101.866 134.057 102.187 131.225H116.375C115.947 136.996 113.649 141.886 109.481 145.894C104.992 150.222 98.8735 152.387 91.1248 152.387ZM110.584 151.104L131.185 93.7904H145.774L166.455 151.104H151.545L148.179 140.764H128.139L124.852 151.104H110.584ZM131.425 130.583H144.892L140.563 116.716L138.319 108.62H138.159C137.25 112.04 136.475 114.739 135.834 116.716L131.425 130.583ZM18.5065 213.104V167.814H1.8334V155.79H49.528V167.814H32.6946V213.104H18.5065ZM50.0816 213.104V155.79H64.2697V213.104H50.0816ZM93.3968 202.924C97.8857 202.924 101.306 201.241 103.657 197.874C106.062 194.454 107.264 190.018 107.264 184.567C107.264 179.117 106.062 174.681 103.657 171.261C101.306 167.841 97.8857 166.131 93.3968 166.131C88.9613 166.131 85.5145 167.841 83.0563 171.261C80.6515 174.681 79.4491 179.117 79.4491 184.567C79.4491 189.965 80.6515 194.374 83.0563 197.794C85.5145 201.214 88.9613 202.924 93.3968 202.924ZM113.917 206.05C108.734 211.661 101.867 214.467 93.3166 214.467C84.7664 214.467 77.8994 211.661 72.7158 206.05C67.5856 200.439 65.0205 193.278 65.0205 184.567C65.0205 175.857 67.5856 168.696 72.7158 163.085C77.8994 157.474 84.7664 154.668 93.3166 154.668C101.867 154.668 108.734 157.474 113.917 163.085C119.101 168.696 121.693 175.857 121.693 184.567C121.693 193.278 119.101 200.439 113.917 206.05ZM122.42 213.104V155.79H136.688L153.682 184.567L157.61 191.862H157.77C157.663 187.266 157.61 184.3 157.61 182.964V155.79H171.477V213.104H157.209L140.376 184.728L136.287 177.033H136.127C136.234 181.949 136.287 185.075 136.287 186.411V213.104H122.42Z" fill="#331E3D"/>
<rect x="0.470703" y="-3.8147e-05" width="173.435" height="28.8572" fill="#331E3D"/>
<rect x="0.470703" y="216.575" width="173.435" height="28.8572" fill="#331E3D"/>
<path d="M19.2279 276.364L0.310385 219.051H15.0596L24.0374 249.11L26.6827 259.21H26.843C27.8049 255.309 28.6866 251.943 29.4882 249.11L38.3859 219.051H52.7343L33.897 276.364H19.2279ZM51.8018 276.364V219.051H95.248V230.754H65.99V241.014H91.0797V252.076H65.99V264.34H95.7289V276.364H51.8018ZM97.3265 276.364V219.051H124.741C130.619 219.051 135.429 220.52 139.169 223.459C142.91 226.345 144.781 230.38 144.781 235.563C144.781 242.51 141.467 247.133 134.841 249.431V249.671C139.65 251.275 142.429 254.775 143.177 260.172C143.498 262.043 143.712 264.367 143.819 267.146C143.979 269.871 144.166 271.929 144.38 273.318C144.593 274.654 144.994 275.429 145.582 275.643V276.364H131.795C131.367 276.097 131.02 275.322 130.753 274.04C130.539 272.757 130.352 270.94 130.192 268.589C130.031 266.238 129.844 264.394 129.63 263.058C128.882 257.607 125.703 254.882 120.092 254.882H111.515V276.364H97.3265ZM111.515 244.381H122.176C124.955 244.381 127.065 243.766 128.508 242.537C129.951 241.308 130.673 239.598 130.673 237.407C130.673 235.269 129.978 233.559 128.588 232.277C127.199 230.941 125.168 230.273 122.496 230.273H111.515V244.381ZM146.376 276.364V219.051H160.564V276.364H146.376Z" fill="#FFBDE9"/>
<path d="M18.5065 26.5599V-18.7298H1.8334V-30.7537H49.528V-18.7298H32.6946V26.5599H18.5065ZM50.0816 26.5599V-30.7537H64.2697V26.5599H50.0816ZM93.3968 16.3798C97.8857 16.3798 101.306 14.6964 103.657 11.3298C106.062 7.90964 107.264 3.47418 107.264 -1.97663C107.264 -7.42743 106.062 -11.8629 103.657 -15.283C101.306 -18.7031 97.8857 -20.4132 93.3968 -20.4132C88.9613 -20.4132 85.5145 -18.7031 83.0563 -15.283C80.6515 -11.8629 79.4491 -7.42743 79.4491 -1.97663C79.4491 3.42074 80.6515 7.82948 83.0563 11.2496C85.5145 14.6697 88.9613 16.3798 93.3968 16.3798ZM113.917 19.506C108.734 25.1171 101.867 27.9226 93.3166 27.9226C84.7664 27.9226 77.8994 25.1171 72.7158 19.506C67.5856 13.8948 65.0205 6.73397 65.0205 -1.97663C65.0205 -10.6872 67.5856 -17.8481 72.7158 -23.4592C77.8994 -29.0703 84.7664 -31.8759 93.3166 -31.8759C101.867 -31.8759 108.734 -29.0703 113.917 -23.4592C119.101 -17.8481 121.693 -10.6872 121.693 -1.97663C121.693 6.73397 119.101 13.8948 113.917 19.506ZM122.42 26.5599V-30.7537H136.688L153.682 -1.97663L157.61 5.31783H157.77C157.663 0.722056 157.61 -2.24382 157.61 -3.57981V-30.7537H171.477V26.5599H157.209L140.376 -1.81631L136.287 -9.51156H136.127C136.234 -4.59515 136.287 -1.46895 136.287 -0.132972V26.5599H122.42Z" fill="#FFBDE9"/>
</g>
<defs>
<clipPath id="clip0_373_105">
<rect width="173.435" height="245.432" fill="white" transform="translate(0.470703)"/>
</clipPath>
</defs>
</svg>
