<svg width="177" height="28" viewBox="0 0 177 28" fill="none" xmlns="http://www.w3.org/2000/svg">
<path d="M8.748 27L0.072 1.26H5.544L10.08 16.164L11.196 20.268H11.268C11.676 18.636 12.048 17.268 12.384 16.164L16.884 1.26H22.176L13.5 27H8.748ZM29.9827 27.54C27.0067 27.54 24.6667 26.628 22.9627 24.804C21.2587 22.956 20.4067 20.604 20.4067 17.748C20.4067 14.988 21.2587 12.684 22.9627 10.836C24.6667 8.964 26.8507 8.028 29.5147 8.028C32.4187 8.028 34.6627 9.036 36.2467 11.052C37.8307 13.068 38.6227 15.768 38.6227 19.152H25.2307C25.4227 20.616 25.9147 21.756 26.7067 22.572C27.4987 23.364 28.5787 23.76 29.9467 23.76C31.7467 23.76 32.9347 23.004 33.5107 21.492H38.3347C37.9747 23.22 37.0627 24.66 35.5987 25.812C34.1347 26.964 32.2627 27.54 29.9827 27.54ZM29.5867 11.808C27.2107 11.808 25.7827 13.128 25.3027 15.768H33.5107C33.4387 14.592 33.0427 13.644 32.3227 12.924C31.6027 12.18 30.6907 11.808 29.5867 11.808ZM35.2747 1.152L31.3867 6.228H27.5707L29.5507 1.152H35.2747ZM45.6047 8.532V11.484H45.7127C46.2887 10.404 46.9247 9.612 47.6207 9.108C48.3167 8.58 49.1927 8.316 50.2487 8.316C50.7527 8.316 51.1367 8.364 51.4007 8.46V12.744H51.2927C49.6367 12.576 48.3047 12.936 47.2967 13.824C46.2887 14.712 45.7847 16.104 45.7847 18V27H40.8887V8.532H45.6047ZM53.5098 27V8.532H58.4058V27H53.5098ZM53.5098 5.652V1.26H58.4058V5.652H53.5098ZM60.4806 11.916V8.532H63.0006V6.876C63.0006 4.716 63.7446 3.18 65.2326 2.268C66.7206 1.356 68.7126 1.032 71.2086 1.296V5.076C69.9846 5.028 69.1206 5.136 68.6166 5.4C68.1366 5.664 67.8966 6.252 67.8966 7.164V8.532H71.2086V11.916H67.8966V27H63.0006V11.916H60.4806ZM73.4046 27V8.532H78.3006V27H73.4046ZM73.4046 5.652V1.26H78.3006V5.652H73.4046ZM90.027 27.54C87.171 27.54 84.879 26.616 83.151 24.768C81.423 22.92 80.559 20.592 80.559 17.784C80.559 14.976 81.399 12.648 83.079 10.8C84.783 8.952 87.015 8.028 89.775 8.028C92.103 8.028 93.999 8.64 95.463 9.864C96.927 11.088 97.827 12.732 98.163 14.796H93.375C93.207 13.956 92.823 13.272 92.223 12.744C91.623 12.216 90.879 11.952 89.991 11.952C88.551 11.952 87.447 12.468 86.679 13.5C85.911 14.532 85.527 15.96 85.527 17.784C85.527 19.584 85.899 21.012 86.643 22.068C87.387 23.1 88.479 23.616 89.919 23.616C92.055 23.616 93.291 22.572 93.627 20.484H98.343C98.175 22.524 97.347 24.216 95.859 25.56C94.371 26.88 92.427 27.54 90.027 27.54ZM112.458 27C112.218 26.688 112.026 26.004 111.882 24.948H111.81C111.282 25.74 110.61 26.352 109.794 26.784C108.978 27.216 107.838 27.432 106.374 27.432C104.43 27.432 102.87 26.94 101.694 25.956C100.518 24.972 99.9301 23.58 99.9301 21.78C99.9301 19.908 100.578 18.54 101.874 17.676C103.17 16.788 104.994 16.176 107.346 15.84C109.074 15.6 110.25 15.36 110.874 15.12C111.498 14.856 111.81 14.4 111.81 13.752C111.81 13.08 111.546 12.552 111.018 12.168C110.49 11.76 109.722 11.556 108.714 11.556C106.482 11.556 105.294 12.42 105.15 14.148H100.794C100.866 12.396 101.574 10.944 102.918 9.792C104.262 8.64 106.206 8.064 108.75 8.064C113.934 8.064 116.526 10.332 116.526 14.868V24.264C116.526 25.656 116.742 26.508 117.174 26.82V27H112.458ZM107.562 24.012C108.906 24.012 109.962 23.664 110.73 22.968C111.522 22.272 111.918 21.444 111.918 20.484V17.712C111.39 18.024 110.25 18.384 108.498 18.792C107.106 19.104 106.122 19.464 105.546 19.872C104.97 20.256 104.682 20.856 104.682 21.672C104.682 23.232 105.642 24.012 107.562 24.012ZM118.207 11.772V8.532H120.763V2.772H125.551V8.532H128.719V11.772H125.551V21.564C125.551 22.788 126.163 23.4 127.387 23.4L128.827 23.364V26.964C128.083 27.012 127.063 27.036 125.767 27.036C124.351 27.036 123.163 26.7 122.203 26.028C121.243 25.332 120.763 24.192 120.763 22.608V11.772H118.207ZM131.24 27V8.532H136.136V27H131.24ZM131.24 5.652V1.26H136.136V5.652H131.24ZM154.987 24.768C153.187 26.616 150.871 27.54 148.039 27.54C145.207 27.54 142.891 26.616 141.091 24.768C139.291 22.896 138.391 20.568 138.391 17.784C138.391 15 139.291 12.684 141.091 10.836C142.891 8.964 145.207 8.028 148.039 8.028C150.871 8.028 153.187 8.964 154.987 10.836C156.787 12.684 157.687 15 157.687 17.784C157.687 20.568 156.787 22.896 154.987 24.768ZM148.039 23.796C149.503 23.796 150.643 23.256 151.459 22.176C152.299 21.072 152.719 19.608 152.719 17.784C152.719 15.96 152.299 14.496 151.459 13.392C150.643 12.288 149.503 11.736 148.039 11.736C146.551 11.736 145.399 12.288 144.583 13.392C143.767 14.472 143.359 15.936 143.359 17.784C143.359 19.608 143.767 21.072 144.583 22.176C145.399 23.256 146.551 23.796 148.039 23.796ZM164.751 8.532V11.052H164.859C166.131 9.036 167.955 8.028 170.331 8.028C172.227 8.028 173.763 8.676 174.939 9.972C176.115 11.244 176.703 12.9 176.703 14.94V27H171.807V15.66C171.807 14.652 171.519 13.836 170.943 13.212C170.391 12.588 169.611 12.276 168.603 12.276C167.523 12.276 166.623 12.672 165.903 13.464C165.207 14.256 164.859 15.276 164.859 16.524V27H159.963V8.532H164.751Z" fill="black"/>
</svg>
